{
  "source": "C:\\Users\\Peter\\Desktop\\stuff\\MIUN\\quantitative_research\\video_compression\\videos\\BVI-HD\\BVI-HD_CDVL_videos\\ORIG\\ParkPlay_1920x1080_50fps.mp4",
  "output": "C:\\Users\\Peter\\Desktop\\stuff\\MIUN\\quantitative_research\\video_compression\\compressed_videos\\BVI-HD\\hevc\\4\\ParkPlay_1920x1080_50fps_hevc.mp4",
  "codec": "hevc",
  "ok": "Input #0, mov,mp4,m4a,3gp,3g2,mj2, from 'C:\\Users\\Peter\\Desktop\\stuff\\MIUN\\quantitative_research\\video_compression\\videos\\BVI-HD\\BVI-HD_CDVL_videos\\ORIG\\ParkPlay_1920x1080_50fps.mp4':\n  Metadata:\n    major_brand     : isom\n    minor_version   : 512\n    compatible_brands: isomiso2avc1mp41\n    encoder         : Lavf54.28.101\n  Duration: 00:00:05.00, start: 0.000000, bitrate: 620563 kb/s\n  Stream #0:0[0x1](und): Video: h264 (High 4:4:4 Predictive) (avc1 / 0x31637661), yuv420p(progressive), 1920x1080, 620558 kb/s, 50 fps, 50 tbr, 50 tbn (default)\n    Metadata:\n      handler_name    : VideoHandler\n      vendor_id       : [0][0][0][0]\n[out#0/mp4 @ 00000170369e7d80] Codec AVOption b:a (set bitrate (in bits/s)) has not been used for any stream. The most likely reason is either wrong type (e.g. a video option with no video streams) or that it is a private option of some decoder which was not actually used for any stream.\nStream mapping:\n  Stream #0:0 -> #0:0 (h264 (native) -> hevc (libx265))\nPress [q] to stop, [?] for help\n[libx265 @ 00000170374f0b40] Unknown option: \"aq-mode.\nx265 [info]: HEVC encoder version 4.1+190-8f11c33ac\nx265 [info]: build info [Windows][GCC 15.1.0][64 bit] 10bit\nx265 [info]: using cpu capabilities: MMX2 SSE2Fast LZCNT SSSE3 SSE4.2 AVX FMA3 BMI2 AVX2\nx265 [info]: Main 10 profile, Level-4.1 (Main tier)\nx265 [info]: Thread pool created using 12 threads\nx265 [info]: Slices                              : 1\nx265 [info]: frame threads / pool features       : 3 / wpp(17 rows)\nx265 [info]: Coding QT: max CU size, min CU size : 64 / 8\nx265 [info]: Residual QT: max TU size, max depth : 32 / 1 inter / 1 intra\nx265 [info]: ME / range / subpel / merge         : star / 57 / 3 / 3\nx265 [info]: Keyframe min / max / scenecut / bias  : 25 / 250 / 40 / 5.00 \nx265 [info]: Lookahead / bframes / badapt        : 25 / 4 / 2\nx265 [info]: b-pyramid / weightp / weightb       : 1 / 1 / 0\nx265 [info]: References / ref-limit  cu / depth  : 4 / on / on\nx265 [info]: AQ: mode / str / qg-size / cu-tree  : 2 / 1.0 / 32 / 1\nx265 [info]: Rate Control / qCompress            : ABR-4000 kbps / 0.60\nx265 [info]: VBV/HRD buffer / max-rate / init    : 4000 / 4000 / 0.750\nx265 [info]: tools: rect limit-modes rd=4 psy-rd=2.00 rdoq=2 psy-rdoq=1.00\nx265 [info]: tools: rskip mode=1 signhide tmvp strong-intra-smoothing lslices=4\nx265 [info]: tools: deblock sao dhdr10-info\nOutput #0, mp4, to 'C:\\Users\\Peter\\Desktop\\stuff\\MIUN\\quantitative_research\\video_compression\\compressed_videos\\BVI-HD\\hevc\\4\\ParkPlay_1920x1080_50fps_hevc.mp4':\n  Metadata:\n    major_brand     : isom\n    minor_version   : 512\n    compatible_brands: isomiso2avc1mp41\n    encoder         : Lavf62.3.100\n  Stream #0:0(und): Video: hevc (hev1 / 0x31766568), yuv420p10le(tv, progressive), 1920x1080, q=2-31, 4000 kb/s, 50 fps, 12800 tbn (default)\n    Metadata:\n      encoder         : Lavc62.11.100 libx265\n      handler_name    : VideoHandler\n      vendor_id       : [0][0][0][0]\n    Side data:\n      cpb: bitrate max/min/avg: 4000000/0/4000000 buffer size: 4000000 vbv_delay: N/A\nframe=    0 fps=0.0 q=0.0 size=       0KiB time=N/A bitrate=N/A speed=N/A elapsed=0:00:01.13    \nframe=    0 fps=0.0 q=0.0 size=       0KiB time=N/A bitrate=N/A speed=N/A elapsed=0:00:01.69    \nframe=    0 fps=0.0 q=0.0 size=       0KiB time=N/A bitrate=N/A speed=N/A elapsed=0:00:02.20    \nframe=    0 fps=0.0 q=0.0 size=       0KiB time=N/A bitrate=N/A speed=N/A elapsed=0:00:02.72    \nframe=    0 fps=0.0 q=0.0 size=       0KiB time=N/A bitrate=N/A speed=N/A elapsed=0:00:03.25    \nframe=    0 fps=0.0 q=0.0 size=       0KiB time=N/A bitrate=N/A speed=N/A elapsed=0:00:03.77    \nframe=    0 fps=0.0 q=0.0 size=       0KiB time=N/A bitrate=N/A speed=N/A elapsed=0:00:04.30    \nframe=    0 fps=0.0 q=0.0 size=       0KiB time=N/A bitrate=N/A speed=N/A elapsed=0:00:04.81    \nframe=    0 fps=0.0 q=0.0 size=       0KiB time=N/A bitrate=N/A speed=N/A elapsed=0:00:05.38    \nframe=    0 fps=0.0 q=0.0 size=       0KiB time=N/A bitrate=N/A speed=N/A elapsed=0:00:05.90    \nframe=    0 fps=0.0 q=0.0 size=       0KiB time=N/A bitrate=N/A speed=N/A elapsed=0:00:06.40    \nframe=    0 fps=0.0 q=0.0 size=       0KiB time=N/A bitrate=N/A speed=N/A elapsed=0:00:06.93    \nframe=    0 fps=0.0 q=0.0 size=       0KiB time=N/A bitrate=N/A speed=N/A elapsed=0:00:07.45    \nframe=    0 fps=0.0 q=0.0 size=       0KiB time=N/A bitrate=N/A speed=N/A elapsed=0:00:07.97    \nframe=    0 fps=0.0 q=0.0 size=       0KiB time=N/A bitrate=N/A speed=N/A elapsed=0:00:08.49    \nframe=    0 fps=0.0 q=0.0 size=       0KiB time=N/A bitrate=N/A speed=N/A elapsed=0:00:09.04    \nframe=    0 fps=0.0 q=0.0 size=       0KiB time=N/A bitrate=N/A speed=N/A elapsed=0:00:09.60    \nframe=    0 fps=0.0 q=0.0 size=       0KiB time=N/A bitrate=N/A speed=N/A elapsed=0:00:10.12    \nframe=    0 fps=0.0 q=0.0 size=       0KiB time=N/A bitrate=N/A speed=N/A elapsed=0:00:10.65    \nframe=    1 fps=0.1 q=38.0 size=       0KiB time=-00:00:00.02 bitrate=N/A speed=N/A elapsed=0:00:11.21    \nframe=    2 fps=0.2 q=43.1 size=       0KiB time=00:00:00.00 bitrate=N/A speed=   0x elapsed=0:00:11.74    \nframe=    3 fps=0.2 q=45.1 size=       0KiB time=00:00:00.02 bitrate=  17.6kbits/s speed=0.00163x elapsed=0:00:12.30    \nframe=    3 fps=0.2 q=45.1 size=       0KiB time=00:00:00.02 bitrate=  17.6kbits/s speed=0.00156x elapsed=0:00:12.83    \nframe=    3 fps=0.2 q=45.1 size=       0KiB time=00:00:00.02 bitrate=  17.6kbits/s speed=0.0015x elapsed=0:00:13.36    \nframe=    3 fps=0.2 q=45.1 size=       0KiB time=00:00:00.02 bitrate=  17.6kbits/s speed=0.00144x elapsed=0:00:13.87    \nframe=    3 fps=0.2 q=45.1 size=       0KiB time=00:00:00.02 bitrate=  17.6kbits/s speed=0.00139x elapsed=0:00:14.39    \nframe=    3 fps=0.2 q=45.1 size=       0KiB time=00:00:00.02 bitrate=  17.6kbits/s speed=0.00134x elapsed=0:00:14.92    \nframe=    3 fps=0.2 q=45.1 size=       0KiB time=00:00:00.02 bitrate=  17.6kbits/s speed=0.00129x elapsed=0:00:15.44    \nframe=    4 fps=0.3 q=47.1 size=       0KiB time=00:00:00.04 bitrate=   8.8kbits/s speed=0.0025x elapsed=0:00:15.98    \nframe=    4 fps=0.2 q=47.1 size=       0KiB time=00:00:00.04 bitrate=   8.8kbits/s speed=0.00242x elapsed=0:00:16.50    \nframe=    4 fps=0.2 q=47.1 size=       0KiB time=00:00:00.04 bitrate=   8.8kbits/s speed=0.00235x elapsed=0:00:17.02    \nframe=    5 fps=0.3 q=45.4 size=       0KiB time=00:00:00.06 bitrate=   5.9kbits/s speed=0.00342x elapsed=0:00:17.56    \nframe=    5 fps=0.3 q=45.4 size=       0KiB time=00:00:00.06 bitrate=   5.9kbits/s speed=0.00331x elapsed=0:00:18.10    \nframe=    5 fps=0.3 q=45.4 size=       0KiB time=00:00:00.06 bitrate=   5.9kbits/s speed=0.00322x elapsed=0:00:18.62    \nframe=    6 fps=0.3 q=39.4 size=       0KiB time=00:00:00.08 bitrate=   4.4kbits/s speed=0.00417x elapsed=0:00:19.16    \nframe=    6 fps=0.3 q=39.4 size=       0KiB time=00:00:00.08 bitrate=   4.4kbits/s speed=0.00406x elapsed=0:00:19.71    \nframe=    6 fps=0.3 q=39.4 size=       0KiB time=00:00:00.08 bitrate=   4.4kbits/s speed=0.00395x elapsed=0:00:20.24    \nframe=    6 fps=0.3 q=39.4 size=       0KiB time=00:00:00.08 bitrate=   4.4kbits/s speed=0.00385x elapsed=0:00:20.78    \nframe=    7 fps=0.3 q=43.0 size=       0KiB time=00:00:00.10 bitrate=   3.5kbits/s speed=0.00469x elapsed=0:00:21.30    \nframe=    7 fps=0.3 q=43.0 size=       0KiB time=00:00:00.10 bitrate=   3.5kbits/s speed=0.00458x elapsed=0:00:21.85    \nframe=    7 fps=0.3 q=43.0 size=       0KiB time=00:00:00.10 bitrate=   3.5kbits/s speed=0.00447x elapsed=0:00:22.37    \nframe=    7 fps=0.3 q=43.0 size=       0KiB time=00:00:00.10 bitrate=   3.5kbits/s speed=0.00436x elapsed=0:00:22.91    \nframe=    7 fps=0.3 q=43.0 size=       0KiB time=00:00:00.10 bitrate=   3.5kbits/s speed=0.00427x elapsed=0:00:23.43    \nframe=    7 fps=0.3 q=43.0 size=       0KiB time=00:00:00.10 bitrate=   3.5kbits/s speed=0.00417x elapsed=0:00:23.95    \nframe=    7 fps=0.3 q=43.0 size=       0KiB time=00:00:00.10 bitrate=   3.5kbits/s speed=0.00408x elapsed=0:00:24.48    \nframe=    8 fps=0.3 q=44.4 size=       0KiB time=00:00:00.12 bitrate=   2.9kbits/s speed=0.00479x elapsed=0:00:25.03    \nframe=    8 fps=0.3 q=44.4 size=       0KiB time=00:00:00.12 bitrate=   2.9kbits/s speed=0.0047x elapsed=0:00:25.55    \nframe=    8 fps=0.3 q=44.4 size=       0KiB time=00:00:00.12 bitrate=   2.9kbits/s speed=0.0046x elapsed=0:00:26.07    \nframe=    9 fps=0.3 q=43.4 size=       0KiB time=00:00:00.14 bitrate=   2.5kbits/s speed=0.00526x elapsed=0:00:26.60    \nframe=    9 fps=0.3 q=43.4 size=       0KiB time=00:00:00.14 bitrate=   2.5kbits/s speed=0.00515x elapsed=0:00:27.16    \nframe=    9 fps=0.3 q=43.4 size=       0KiB time=00:00:00.14 bitrate=   2.5kbits/s speed=0.00506x elapsed=0:00:27.69    \nframe=    9 fps=0.3 q=43.4 size=       0KiB time=00:00:00.14 bitrate=   2.5kbits/s speed=0.00495x elapsed=0:00:28.25    \nframe=   10 fps=0.3 q=38.4 size=       0KiB time=00:00:00.14 bitrate=   2.5kbits/s speed=0.00486x elapsed=0:00:28.78    \nframe=   10 fps=0.3 q=38.4 size=       0KiB time=00:00:00.16 bitrate=   2.2kbits/s speed=0.00546x elapsed=0:00:29.32    \nframe=   11 fps=0.4 q=40.7 size=       0KiB time=00:00:00.18 bitrate=   2.0kbits/s speed=0.00603x elapsed=0:00:29.83    \nframe=   11 fps=0.4 q=40.7 size=       0KiB time=00:00:00.18 bitrate=   2.0kbits/s speed=0.00593x elapsed=0:00:30.36    \nframe=   11 fps=0.4 q=40.7 size=       0KiB time=00:00:00.18 bitrate=   2.0kbits/s speed=0.00582x elapsed=0:00:30.90    \nframe=   11 fps=0.4 q=40.7 size=       0KiB time=00:00:00.18 bitrate=   2.0kbits/s speed=0.00573x elapsed=0:00:31.41    \nframe=   11 fps=0.3 q=40.7 size=       0KiB time=00:00:00.18 bitrate=   2.0kbits/s speed=0.00564x elapsed=0:00:31.93    \nframe=   11 fps=0.3 q=40.7 size=       0KiB time=00:00:00.18 bitrate=   2.0kbits/s speed=0.00554x elapsed=0:00:32.50    \nframe=   12 fps=0.4 q=42.9 size=       0KiB time=00:00:00.20 bitrate=   1.8kbits/s speed=0.00605x elapsed=0:00:33.05    \nframe=   12 fps=0.4 q=42.9 size=       0KiB time=00:00:00.20 bitrate=   1.8kbits/s speed=0.00596x elapsed=0:00:33.58    \nframe=   12 fps=0.4 q=42.9 size=       0KiB time=00:00:00.20 bitrate=   1.8kbits/s speed=0.00586x elapsed=0:00:34.14    \nframe=   12 fps=0.3 q=42.9 size=       0KiB time=00:00:00.20 bitrate=   1.8kbits/s speed=0.00577x elapsed=0:00:34.67    \nframe=   12 fps=0.3 q=42.9 size=       0KiB time=00:00:00.20 bitrate=   1.8kbits/s speed=0.00568x elapsed=0:00:35.20    \nframe=   13 fps=0.4 q=42.8 size=       0KiB time=00:00:00.22 bitrate=   1.6kbits/s speed=0.00615x elapsed=0:00:35.75    \nframe=   13 fps=0.4 q=42.8 size=       0KiB time=00:00:00.22 bitrate=   1.6kbits/s speed=0.00606x elapsed=0:00:36.30    \nframe=   14 fps=0.4 q=38.0 size=       0KiB time=00:00:00.24 bitrate=   1.5kbits/s speed=0.00652x elapsed=0:00:36.83    \nframe=   14 fps=0.4 q=38.0 size=       0KiB time=00:00:00.24 bitrate=   1.5kbits/s speed=0.00643x elapsed=0:00:37.35    \nframe=   15 fps=0.4 q=40.5 size=       0KiB time=00:00:00.26 bitrate=   1.4kbits/s speed=0.00687x elapsed=0:00:37.86    \nframe=   15 fps=0.4 q=40.5 size=       0KiB time=00:00:00.26 bitrate=   1.4kbits/s speed=0.00677x elapsed=0:00:38.39    \nframe=   15 fps=0.4 q=40.5 size=       0KiB time=00:00:00.26 bitrate=   1.4kbits/s speed=0.00667x elapsed=0:00:38.95    \nframe=   15 fps=0.4 q=40.5 size=       0KiB time=00:00:00.26 bitrate=   1.4kbits/s speed=0.00659x elapsed=0:00:39.47    \nframe=   15 fps=0.4 q=40.5 size=       0KiB time=00:00:00.26 bitrate=   1.4kbits/s speed=0.0065x elapsed=0:00:40.01    \nframe=   15 fps=0.4 q=40.5 size=       0KiB time=00:00:00.26 bitrate=   1.4kbits/s speed=0.00641x elapsed=0:00:40.56    \nframe=   16 fps=0.4 q=42.4 size=       0KiB time=00:00:00.28 bitrate=   1.3kbits/s speed=0.00681x elapsed=0:00:41.09    \nframe=   16 fps=0.4 q=42.4 size=       0KiB time=00:00:00.28 bitrate=   1.3kbits/s speed=0.00673x elapsed=0:00:41.61    \nframe=   16 fps=0.4 q=42.4 size=       0KiB time=00:00:00.28 bitrate=   1.3kbits/s speed=0.00664x elapsed=0:00:42.13    \nframe=   16 fps=0.4 q=42.4 size=       0KiB time=00:00:00.28 bitrate=   1.3kbits/s speed=0.00657x elapsed=0:00:42.65    \nframe=   16 fps=0.4 q=42.4 size=       0KiB time=00:00:00.28 bitrate=   1.3kbits/s speed=0.00648x elapsed=0:00:43.17    \nframe=   17 fps=0.4 q=42.5 size=       0KiB time=00:00:00.30 bitrate=   1.2kbits/s speed=0.00686x elapsed=0:00:43.70    \nframe=   17 fps=0.4 q=42.5 size=       0KiB time=00:00:00.30 bitrate=   1.2kbits/s speed=0.00678x elapsed=0:00:44.21    \nframe=   17 fps=0.4 q=42.5 size=       0KiB time=00:00:00.30 bitrate=   1.2kbits/s speed=0.0067x elapsed=0:00:44.74    \nframe=   17 fps=0.4 q=42.5 size=       0KiB time=00:00:00.30 bitrate=   1.2kbits/s speed=0.00662x elapsed=0:00:45.29    \nframe=   18 fps=0.4 q=38.0 size=       0KiB time=00:00:00.32 bitrate=   1.1kbits/s speed=0.00698x elapsed=0:00:45.81    \nframe=   18 fps=0.4 q=38.0 size=       0KiB time=00:00:00.32 bitrate=   1.1kbits/s speed=0.0069x elapsed=0:00:46.34    \nframe=   18 fps=0.4 q=38.0 size=       0KiB time=00:00:00.32 bitrate=   1.1kbits/s speed=0.00683x elapsed=0:00:46.87    \nframe=   18 fps=0.4 q=38.0 size=       0KiB time=00:00:00.32 bitrate=   1.1kbits/s speed=0.00675x elapsed=0:00:47.39    \nframe=   19 fps=0.4 q=40.1 size=       0KiB time=00:00:00.34 bitrate=   1.0kbits/s speed=0.00709x elapsed=0:00:47.92    \nframe=   19 fps=0.4 q=40.1 size=       0KiB time=00:00:00.34 bitrate=   1.0kbits/s speed=0.00702x elapsed=0:00:48.45    \nframe=   19 fps=0.4 q=40.1 size=       0KiB time=00:00:00.34 bitrate=   1.0kbits/s speed=0.00694x elapsed=0:00:48.97    \nframe=   19 fps=0.4 q=40.1 size=       0KiB time=00:00:00.34 bitrate=   1.0kbits/s speed=0.00687x elapsed=0:00:49.51    \nframe=   20 fps=0.4 q=42.2 size=       0KiB time=00:00:00.36 bitrate=   1.0kbits/s speed=0.0072x elapsed=0:00:50.03    \nframe=   20 fps=0.4 q=42.2 size=       0KiB time=00:00:00.36 bitrate=   1.0kbits/s speed=0.00712x elapsed=0:00:50.54    \nframe=   20 fps=0.4 q=42.2 size=       0KiB time=00:00:00.36 bitrate=   1.0kbits/s speed=0.00705x elapsed=0:00:51.09    \nframe=   20 fps=0.4 q=42.2 size=       0KiB time=00:00:00.36 bitrate=   1.0kbits/s speed=0.00697x elapsed=0:00:51.64    \nframe=   20 fps=0.4 q=42.2 size=       0KiB time=00:00:00.36 bitrate=   1.0kbits/s speed=0.0069x elapsed=0:00:52.17    \nframe=   20 fps=0.4 q=42.2 size=       0KiB time=00:00:00.36 bitrate=   1.0kbits/s speed=0.00683x elapsed=0:00:52.69    \nframe=   20 fps=0.4 q=42.2 size=       0KiB time=00:00:00.36 bitrate=   1.0kbits/s speed=0.00676x elapsed=0:00:53.21    \nframe=   21 fps=0.4 q=42.0 size=       0KiB time=00:00:00.38 bitrate=   0.9kbits/s speed=0.00707x elapsed=0:00:53.73    \nframe=   21 fps=0.4 q=42.0 size=       0KiB time=00:00:00.38 bitrate=   0.9kbits/s speed=0.007x elapsed=0:00:54.25    \nframe=   21 fps=0.4 q=42.0 size=       0KiB time=00:00:00.38 bitrate=   0.9kbits/s speed=0.00694x elapsed=0:00:54.77    \nframe=   22 fps=0.4 q=37.5 size=       0KiB time=00:00:00.40 bitrate=   0.9kbits/s speed=0.00723x elapsed=0:00:55.30    \nframe=   23 fps=0.4 q=40.1 size=       0KiB time=00:00:00.42 bitrate=   0.8kbits/s speed=0.00752x elapsed=0:00:55.82    \nframe=   23 fps=0.4 q=40.1 size=       0KiB time=00:00:00.42 bitrate=   0.8kbits/s speed=0.00745x elapsed=0:00:56.35    \nframe=   23 fps=0.4 q=40.1 size=       0KiB time=00:00:00.42 bitrate=   0.8kbits/s speed=0.00738x elapsed=0:00:56.87    \nframe=   23 fps=0.4 q=40.1 size=       0KiB time=00:00:00.42 bitrate=   0.8kbits/s speed=0.00732x elapsed=0:00:57.39    \nframe=   23 fps=0.4 q=40.1 size=       0KiB time=00:00:00.42 bitrate=   0.8kbits/s speed=0.00725x elapsed=0:00:57.91    \nframe=   24 fps=0.4 q=42.1 size=       0KiB time=00:00:00.44 bitrate=   0.8kbits/s speed=0.00753x elapsed=0:00:58.44    \nframe=   24 fps=0.4 q=42.1 size=       0KiB time=00:00:00.44 bitrate=   0.8kbits/s speed=0.00746x elapsed=0:00:58.96    \nframe=   24 fps=0.4 q=42.1 size=       0KiB time=00:00:00.44 bitrate=   0.8kbits/s speed=0.0074x elapsed=0:00:59.48    \nframe=   24 fps=0.4 q=42.1 size=       0KiB time=00:00:00.44 bitrate=   0.8kbits/s speed=0.00733x elapsed=0:01:00.02    \nframe=   24 fps=0.4 q=42.1 size=       0KiB time=00:00:00.44 bitrate=   0.8kbits/s speed=0.00727x elapsed=0:01:00.54    \nframe=   25 fps=0.4 q=42.1 size=       0KiB time=00:00:00.46 bitrate=   0.8kbits/s speed=0.00753x elapsed=0:01:01.05    \nframe=   25 fps=0.4 q=42.1 size=       0KiB time=00:00:00.46 bitrate=   0.8kbits/s speed=0.00747x elapsed=0:01:01.58    \nframe=   26 fps=0.4 q=38.0 size=       0KiB time=00:00:00.48 bitrate=   0.7kbits/s speed=0.00773x elapsed=0:01:02.10    \nframe=   26 fps=0.4 q=38.0 size=       0KiB time=00:00:00.48 bitrate=   0.7kbits/s speed=0.00767x elapsed=0:01:02.61    \nframe=   27 fps=0.4 q=40.2 size=       0KiB time=00:00:00.50 bitrate=   0.7kbits/s speed=0.00792x elapsed=0:01:03.13    \nframe=   27 fps=0.4 q=40.2 size=       0KiB time=00:00:00.50 bitrate=   0.7kbits/s speed=0.00785x elapsed=0:01:03.67    \nframe=   27 fps=0.4 q=40.2 size=       0KiB time=00:00:00.50 bitrate=   0.7kbits/s speed=0.00779x elapsed=0:01:04.22    \nframe=   27 fps=0.4 q=40.2 size=       0KiB time=00:00:00.50 bitrate=   0.7kbits/s speed=0.00772x elapsed=0:01:04.74    \nframe=   27 fps=0.4 q=40.2 size=       0KiB time=00:00:00.50 bitrate=   0.7kbits/s speed=0.00766x elapsed=0:01:05.29    \nframe=   27 fps=0.4 q=40.2 size=       0KiB time=00:00:00.50 bitrate=   0.7kbits/s speed=0.00759x elapsed=0:01:05.83    \nframe=   28 fps=0.4 q=42.1 size=     256KiB time=00:00:00.52 bitrate=4033.7kbits/s speed=0.00784x elapsed=0:01:06.35    \nframe=   28 fps=0.4 q=42.1 size=     256KiB time=00:00:00.52 bitrate=4033.7kbits/s speed=0.00778x elapsed=0:01:06.86    \nframe=   28 fps=0.4 q=42.1 size=     256KiB time=00:00:00.52 bitrate=4033.7kbits/s speed=0.00771x elapsed=0:01:07.40    \nframe=   28 fps=0.4 q=42.1 size=     256KiB time=00:00:00.52 bitrate=4033.7kbits/s speed=0.00765x elapsed=0:01:07.95    \nframe=   28 fps=0.4 q=42.1 size=     256KiB time=00:00:00.52 bitrate=4033.7kbits/s speed=0.00759x elapsed=0:01:08.48    \nframe=   29 fps=0.4 q=42.1 size=     256KiB time=00:00:00.54 bitrate=3884.3kbits/s speed=0.00783x elapsed=0:01:09.00    \nframe=   29 fps=0.4 q=42.1 size=     256KiB time=00:00:00.54 bitrate=3884.3kbits/s speed=0.00776x elapsed=0:01:09.57    \nframe=   29 fps=0.4 q=42.1 size=     256KiB time=00:00:00.54 bitrate=3884.3kbits/s speed=0.0077x elapsed=0:01:10.11    \nframe=   29 fps=0.4 q=42.1 size=     256KiB time=00:00:00.54 bitrate=3884.3kbits/s speed=0.00764x elapsed=0:01:10.64    \nframe=   29 fps=0.4 q=42.1 size=     256KiB time=00:00:00.54 bitrate=3884.3kbits/s speed=0.00759x elapsed=0:01:11.17    \nframe=   30 fps=0.4 q=38.0 size=     256KiB time=00:00:00.56 bitrate=3745.5kbits/s speed=0.00781x elapsed=0:01:11.71    \nframe=   30 fps=0.4 q=38.0 size=     256KiB time=00:00:00.56 bitrate=3745.5kbits/s speed=0.00775x elapsed=0:01:12.26    \nframe=   30 fps=0.4 q=38.0 size=     256KiB time=00:00:00.56 bitrate=3745.5kbits/s speed=0.00769x elapsed=0:01:12.79    \nframe=   30 fps=0.4 q=38.0 size=     256KiB time=00:00:00.56 bitrate=3745.5kbits/s speed=0.00763x elapsed=0:01:13.37    \nframe=   30 fps=0.4 q=38.0 size=     256KiB time=00:00:00.56 bitrate=3745.5kbits/s speed=0.00758x elapsed=0:01:13.91    \nframe=   30 fps=0.4 q=38.0 size=     256KiB time=00:00:00.56 bitrate=3745.5kbits/s speed=0.00752x elapsed=0:01:14.51    \nframe=   30 fps=0.4 q=38.0 size=     256KiB time=00:00:00.56 bitrate=3745.5kbits/s speed=0.00746x elapsed=0:01:15.11    \nframe=   31 fps=0.4 q=40.2 size=     256KiB time=00:00:00.58 bitrate=3616.4kbits/s speed=0.00767x elapsed=0:01:15.66    \nframe=   31 fps=0.4 q=40.2 size=     256KiB time=00:00:00.58 bitrate=3616.4kbits/s speed=0.0076x elapsed=0:01:16.26    \nframe=   31 fps=0.4 q=40.2 size=     256KiB time=00:00:00.58 bitrate=3616.4kbits/s speed=0.00754x elapsed=0:01:16.87    \nframe=   31 fps=0.4 q=40.2 size=     256KiB time=00:00:00.58 bitrate=3616.4kbits/s speed=0.00748x elapsed=0:01:17.57    \nframe=   31 fps=0.4 q=40.2 size=     256KiB time=00:00:00.58 bitrate=3616.4kbits/s speed=0.00742x elapsed=0:01:18.21    \nframe=   31 fps=0.4 q=40.2 size=     256KiB time=00:00:00.58 bitrate=3616.4kbits/s speed=0.00735x elapsed=0:01:18.90    \nframe=   31 fps=0.4 q=40.2 size=     256KiB time=00:00:00.58 bitrate=3616.4kbits/s speed=0.0073x elapsed=0:01:19.50    \nframe=   31 fps=0.4 q=40.2 size=     256KiB time=00:00:00.58 bitrate=3616.4kbits/s speed=0.00724x elapsed=0:01:20.05    \nframe=   31 fps=0.4 q=40.2 size=     256KiB time=00:00:00.58 bitrate=3616.4kbits/s speed=0.00719x elapsed=0:01:20.61    \nframe=   31 fps=0.4 q=40.2 size=     256KiB time=00:00:00.58 bitrate=3616.4kbits/s speed=0.00715x elapsed=0:01:21.16    \nframe=   31 fps=0.4 q=40.2 size=     256KiB time=00:00:00.58 bitrate=3616.4kbits/s speed=0.0071x elapsed=0:01:21.74    \nframe=   31 fps=0.4 q=40.2 size=     256KiB time=00:00:00.58 bitrate=3616.4kbits/s speed=0.00704x elapsed=0:01:22.32    \nframe=   31 fps=0.4 q=40.2 size=     256KiB time=00:00:00.58 bitrate=3616.4kbits/s speed=0.007x elapsed=0:01:22.88    \nframe=   31 fps=0.4 q=40.2 size=     256KiB time=00:00:00.58 bitrate=3616.4kbits/s speed=0.00695x elapsed=0:01:23.48    \nframe=   31 fps=0.4 q=40.2 size=     256KiB time=00:00:00.58 bitrate=3616.4kbits/s speed=0.0069x elapsed=0:01:24.05    \nframe=   32 fps=0.4 q=42.2 size=     256KiB time=00:00:00.60 bitrate=3495.8kbits/s speed=0.00709x elapsed=0:01:24.62    \nframe=   32 fps=0.4 q=42.2 size=     256KiB time=00:00:00.60 bitrate=3495.8kbits/s speed=0.00705x elapsed=0:01:25.14    \nframe=   32 fps=0.4 q=42.2 size=     256KiB time=00:00:00.60 bitrate=3495.8kbits/s speed=0.007x elapsed=0:01:25.66    \nframe=   32 fps=0.4 q=42.2 size=     256KiB time=00:00:00.60 bitrate=3495.8kbits/s speed=0.00696x elapsed=0:01:26.22    \nframe=   32 fps=0.4 q=42.2 size=     256KiB time=00:00:00.60 bitrate=3495.8kbits/s speed=0.00691x elapsed=0:01:26.78    \nframe=   32 fps=0.4 q=42.2 size=     256KiB time=00:00:00.60 bitrate=3495.8kbits/s speed=0.00687x elapsed=0:01:27.35    \nframe=   32 fps=0.4 q=42.2 size=     256KiB time=00:00:00.60 bitrate=3495.8kbits/s speed=0.00683x elapsed=0:01:27.87    \nframe=   32 fps=0.4 q=42.2 size=     256KiB time=00:00:00.60 bitrate=3495.8kbits/s speed=0.00678x elapsed=0:01:28.46    \nframe=   32 fps=0.4 q=42.2 size=     256KiB time=00:00:00.60 bitrate=3495.8kbits/s speed=0.00674x elapsed=0:01:28.98    \nframe=   33 fps=0.4 q=42.2 size=     256KiB time=00:00:00.62 bitrate=3383.1kbits/s speed=0.00693x elapsed=0:01:29.51    \nframe=   33 fps=0.4 q=42.2 size=     256KiB time=00:00:00.62 bitrate=3383.1kbits/s speed=0.00689x elapsed=0:01:30.03    \nframe=   34 fps=0.4 q=38.0 size=     256KiB time=00:00:00.64 bitrate=3277.3kbits/s speed=0.00707x elapsed=0:01:30.55    \nframe=   34 fps=0.4 q=38.0 size=     256KiB time=00:00:00.64 bitrate=3277.3kbits/s speed=0.00703x elapsed=0:01:31.07    \nframe=   34 fps=0.4 q=38.0 size=     256KiB time=00:00:00.64 bitrate=3277.3kbits/s speed=0.00699x elapsed=0:01:31.61    \nframe=   35 fps=0.4 q=40.2 size=     256KiB time=00:00:00.66 bitrate=3178.0kbits/s speed=0.00716x elapsed=0:01:32.18    \nframe=   35 fps=0.4 q=40.2 size=     256KiB time=00:00:00.66 bitrate=3178.0kbits/s speed=0.00712x elapsed=0:01:32.69    \nframe=   35 fps=0.4 q=40.2 size=     256KiB time=00:00:00.66 bitrate=3178.0kbits/s speed=0.00708x elapsed=0:01:33.22    \nframe=   35 fps=0.4 q=40.2 size=     256KiB time=00:00:00.66 bitrate=3178.0kbits/s speed=0.00704x elapsed=0:01:33.75    \nframe=   35 fps=0.4 q=40.2 size=     256KiB time=00:00:00.66 bitrate=3178.0kbits/s speed=0.007x elapsed=0:01:34.27    \nframe=   36 fps=0.4 q=42.2 size=     256KiB time=00:00:00.68 bitrate=3084.6kbits/s speed=0.00717x elapsed=0:01:34.80    \nframe=   36 fps=0.4 q=42.2 size=     256KiB time=00:00:00.68 bitrate=3084.6kbits/s speed=0.00713x elapsed=0:01:35.31    \nframe=   37 fps=0.4 q=42.4 size=     256KiB time=00:00:00.70 bitrate=2996.4kbits/s speed=0.0073x elapsed=0:01:35.84    \nframe=   37 fps=0.4 q=42.4 size=     256KiB time=00:00:00.70 bitrate=2996.4kbits/s speed=0.00726x elapsed=0:01:36.35    \nframe=   37 fps=0.4 q=42.4 size=     256KiB time=00:00:00.70 bitrate=2996.4kbits/s speed=0.00722x elapsed=0:01:36.88    \nframe=   37 fps=0.4 q=42.4 size=     256KiB time=00:00:00.70 bitrate=2996.4kbits/s speed=0.00718x elapsed=0:01:37.43    \nframe=   38 fps=0.4 q=38.0 size=     256KiB time=00:00:00.72 bitrate=2913.2kbits/s speed=0.00735x elapsed=0:01:37.96    \nframe=   39 fps=0.4 q=40.2 size=     256KiB time=00:00:00.74 bitrate=2834.5kbits/s speed=0.00751x elapsed=0:01:38.50    \nframe=   39 fps=0.4 q=40.2 size=     256KiB time=00:00:00.74 bitrate=2834.5kbits/s speed=0.00747x elapsed=0:01:39.02    \nframe=   39 fps=0.4 q=40.2 size=     256KiB time=00:00:00.74 bitrate=2834.5kbits/s speed=0.00743x elapsed=0:01:39.57    \nframe=   39 fps=0.4 q=40.2 size=     256KiB time=00:00:00.74 bitrate=2834.5kbits/s speed=0.00739x elapsed=0:01:40.19    \nframe=   39 fps=0.4 q=40.2 size=     256KiB time=00:00:00.74 bitrate=2834.5kbits/s speed=0.00734x elapsed=0:01:40.78    \nframe=   39 fps=0.4 q=40.2 size=     256KiB time=00:00:00.74 bitrate=2834.5kbits/s speed=0.0073x elapsed=0:01:41.34    \nframe=   39 fps=0.4 q=40.2 size=     256KiB time=00:00:00.74 bitrate=2834.5kbits/s speed=0.00726x elapsed=0:01:41.95    \nframe=   39 fps=0.4 q=40.2 size=     256KiB time=00:00:00.74 bitrate=2834.5kbits/s speed=0.00722x elapsed=0:01:42.48    \nframe=   39 fps=0.4 q=40.2 size=     256KiB time=00:00:00.74 bitrate=2834.5kbits/s speed=0.00718x elapsed=0:01:43.04    \nframe=   39 fps=0.4 q=40.2 size=     256KiB time=00:00:00.74 bitrate=2834.5kbits/s speed=0.00714x elapsed=0:01:43.61    \nframe=   39 fps=0.4 q=40.2 size=     256KiB time=00:00:00.74 bitrate=2834.5kbits/s speed=0.00711x elapsed=0:01:44.14    \nframe=   40 fps=0.4 q=42.3 size=     256KiB time=00:00:00.76 bitrate=2759.9kbits/s speed=0.00726x elapsed=0:01:44.71    \nframe=   40 fps=0.4 q=42.3 size=     256KiB time=00:00:00.76 bitrate=2759.9kbits/s speed=0.00722x elapsed=0:01:45.28    \nframe=   40 fps=0.4 q=42.3 size=     256KiB time=00:00:00.76 bitrate=2759.9kbits/s speed=0.00718x elapsed=0:01:45.83    \nframe=   40 fps=0.4 q=42.3 size=     256KiB time=00:00:00.76 bitrate=2759.9kbits/s speed=0.00714x elapsed=0:01:46.38    \nframe=   40 fps=0.4 q=42.3 size=     256KiB time=00:00:00.76 bitrate=2759.9kbits/s speed=0.00711x elapsed=0:01:46.93    \nframe=   41 fps=0.4 q=42.2 size=     256KiB time=00:00:00.78 bitrate=2689.1kbits/s speed=0.00726x elapsed=0:01:47.50    \nframe=   41 fps=0.4 q=42.2 size=     256KiB time=00:00:00.78 bitrate=2689.1kbits/s speed=0.00722x elapsed=0:01:48.05    \nframe=   41 fps=0.4 q=42.2 size=     256KiB time=00:00:00.78 bitrate=2689.1kbits/s speed=0.00718x elapsed=0:01:48.58    \nframe=   41 fps=0.4 q=42.2 size=     256KiB time=00:00:00.78 bitrate=2689.1kbits/s speed=0.00715x elapsed=0:01:49.09    \nframe=   41 fps=0.4 q=42.2 size=     256KiB time=00:00:00.78 bitrate=2689.1kbits/s speed=0.00711x elapsed=0:01:49.65    \nframe=   42 fps=0.4 q=38.4 size=     256KiB time=00:00:00.80 bitrate=2621.9kbits/s speed=0.00726x elapsed=0:01:50.25    \nframe=   42 fps=0.4 q=38.4 size=     256KiB time=00:00:00.80 bitrate=2621.9kbits/s speed=0.00722x elapsed=0:01:50.78    \nframe=   42 fps=0.4 q=38.4 size=     256KiB time=00:00:00.80 bitrate=2621.9kbits/s speed=0.00719x elapsed=0:01:51.31    \nframe=   42 fps=0.4 q=38.4 size=     256KiB time=00:00:00.80 bitrate=2621.9kbits/s speed=0.00715x elapsed=0:01:51.83    \nframe=   43 fps=0.4 q=40.0 size=     256KiB time=00:00:00.82 bitrate=2557.9kbits/s speed=0.0073x elapsed=0:01:52.39    \nframe=   43 fps=0.4 q=40.0 size=     256KiB time=00:00:00.82 bitrate=2557.9kbits/s speed=0.00726x elapsed=0:01:52.97    \nframe=   43 fps=0.4 q=40.0 size=     256KiB time=00:00:00.82 bitrate=2557.9kbits/s speed=0.00722x elapsed=0:01:53.50    \nframe=   43 fps=0.4 q=40.0 size=     256KiB time=00:00:00.82 bitrate=2557.9kbits/s speed=0.00719x elapsed=0:01:54.03    \nframe=   43 fps=0.4 q=40.0 size=     256KiB time=00:00:00.82 bitrate=2557.9kbits/s speed=0.00715x elapsed=0:01:54.60    \nframe=   43 fps=0.4 q=40.0 size=     256KiB time=00:00:00.82 bitrate=2557.9kbits/s speed=0.00712x elapsed=0:01:55.19    \nframe=   43 fps=0.4 q=40.0 size=     256KiB time=00:00:00.82 bitrate=2557.9kbits/s speed=0.00708x elapsed=0:01:55.75    \nframe=   43 fps=0.4 q=40.0 size=     256KiB time=00:00:00.82 bitrate=2557.9kbits/s speed=0.00705x elapsed=0:01:56.28    \nframe=   43 fps=0.4 q=40.0 size=     256KiB time=00:00:00.82 bitrate=2557.9kbits/s speed=0.00702x elapsed=0:01:56.81    \nframe=   43 fps=0.4 q=40.0 size=     256KiB time=00:00:00.82 bitrate=2557.9kbits/s speed=0.00699x elapsed=0:01:57.33    \nframe=   43 fps=0.4 q=40.0 size=     256KiB time=00:00:00.82 bitrate=2557.9kbits/s speed=0.00696x elapsed=0:01:57.86    \nframe=   44 fps=0.4 q=42.3 size=     256KiB time=00:00:00.84 bitrate=2497.0kbits/s speed=0.00709x elapsed=0:01:58.42    \nframe=   44 fps=0.4 q=42.3 size=     256KiB time=00:00:00.84 bitrate=2497.0kbits/s speed=0.00706x elapsed=0:01:58.97    \nframe=   44 fps=0.4 q=42.3 size=     256KiB time=00:00:00.84 bitrate=2497.0kbits/s speed=0.00703x elapsed=0:01:59.51    \nframe=   44 fps=0.4 q=42.3 size=     256KiB time=00:00:00.84 bitrate=2497.0kbits/s speed=0.007x elapsed=0:02:00.06    \nframe=   44 fps=0.4 q=42.3 size=     256KiB time=00:00:00.84 bitrate=2497.0kbits/s speed=0.00696x elapsed=0:02:00.64    \nframe=   44 fps=0.4 q=42.3 size=     256KiB time=00:00:00.84 bitrate=2497.0kbits/s speed=0.00693x elapsed=0:02:01.20    \nframe=   44 fps=0.4 q=42.3 size=     256KiB time=00:00:00.84 bitrate=2497.0kbits/s speed=0.0069x elapsed=0:02:01.76    \nframe=   44 fps=0.4 q=42.3 size=     256KiB time=00:00:00.84 bitrate=2497.0kbits/s speed=0.00686x elapsed=0:02:02.37    \nframe=   44 fps=0.4 q=42.3 size=     256KiB time=00:00:00.84 bitrate=2497.0kbits/s speed=0.00683x elapsed=0:02:02.94    \nframe=   44 fps=0.4 q=42.3 size=     256KiB time=00:00:00.84 bitrate=2497.0kbits/s speed=0.0068x elapsed=0:02:03.46    \nframe=   44 fps=0.4 q=42.3 size=     256KiB time=00:00:00.84 bitrate=2497.0kbits/s speed=0.00678x elapsed=0:02:03.97    \nframe=   44 fps=0.4 q=42.3 size=     256KiB time=00:00:00.84 bitrate=2497.0kbits/s speed=0.00675x elapsed=0:02:04.49    \nframe=   44 fps=0.4 q=42.3 size=     256KiB time=00:00:00.84 bitrate=2497.0kbits/s speed=0.00672x elapsed=0:02:05.04    \nframe=   44 fps=0.4 q=42.3 size=     256KiB time=00:00:00.84 bitrate=2497.0kbits/s speed=0.00669x elapsed=0:02:05.55    \nframe=   45 fps=0.4 q=42.3 size=     256KiB time=00:00:00.86 bitrate=2439.0kbits/s speed=0.00682x elapsed=0:02:06.06    \nframe=   45 fps=0.4 q=42.3 size=     256KiB time=00:00:00.86 bitrate=2439.0kbits/s speed=0.00679x elapsed=0:02:06.58    \nframe=   45 fps=0.4 q=42.3 size=     256KiB time=00:00:00.86 bitrate=2439.0kbits/s speed=0.00676x elapsed=0:02:07.17    \nframe=   45 fps=0.4 q=42.3 size=     256KiB time=00:00:00.86 bitrate=2439.0kbits/s speed=0.00673x elapsed=0:02:07.77    \nframe=   45 fps=0.4 q=42.3 size=     256KiB time=00:00:00.86 bitrate=2439.0kbits/s speed=0.0067x elapsed=0:02:08.33    \nframe=   46 fps=0.4 q=38.2 size=     256KiB time=00:00:00.88 bitrate=2383.5kbits/s speed=0.00683x elapsed=0:02:08.91    \nframe=   46 fps=0.4 q=38.2 size=     256KiB time=00:00:00.88 bitrate=2383.5kbits/s speed=0.00679x elapsed=0:02:09.53    \nframe=   46 fps=0.4 q=38.2 size=     256KiB time=00:00:00.88 bitrate=2383.5kbits/s speed=0.00676x elapsed=0:02:10.15    \nframe=   46 fps=0.4 q=38.2 size=     256KiB time=00:00:00.88 bitrate=2383.5kbits/s speed=0.00673x elapsed=0:02:10.67    \nframe=   46 fps=0.4 q=38.2 size=     256KiB time=00:00:00.88 bitrate=2383.5kbits/s speed=0.00671x elapsed=0:02:11.22    \nframe=   46 fps=0.3 q=38.2 size=     256KiB time=00:00:00.88 bitrate=2383.5kbits/s speed=0.00668x elapsed=0:02:11.81    \nframe=   46 fps=0.3 q=38.2 size=     256KiB time=00:00:00.88 bitrate=2383.5kbits/s speed=0.00665x elapsed=0:02:12.34    \nframe=   47 fps=0.4 q=40.0 size=     256KiB time=00:00:00.90 bitrate=2330.6kbits/s speed=0.00677x elapsed=0:02:12.87    \nframe=   47 fps=0.4 q=40.0 size=     256KiB time=00:00:00.90 bitrate=2330.6kbits/s speed=0.00675x elapsed=0:02:13.40    \nframe=   47 fps=0.4 q=40.0 size=     256KiB time=00:00:00.90 bitrate=2330.6kbits/s speed=0.00672x elapsed=0:02:13.96    \nframe=   47 fps=0.3 q=40.0 size=     256KiB time=00:00:00.90 bitrate=2330.6kbits/s speed=0.00669x elapsed=0:02:14.51    \nframe=   47 fps=0.3 q=40.0 size=     256KiB time=00:00:00.90 bitrate=2330.6kbits/s speed=0.00666x elapsed=0:02:15.04    \nframe=   47 fps=0.3 q=40.0 size=     256KiB time=00:00:00.90 bitrate=2330.6kbits/s speed=0.00664x elapsed=0:02:15.59    \nframe=   47 fps=0.3 q=40.0 size=     256KiB time=00:00:00.90 bitrate=2330.6kbits/s speed=0.00661x elapsed=0:02:16.12    \nframe=   47 fps=0.3 q=40.0 size=     256KiB time=00:00:00.90 bitrate=2330.6kbits/s speed=0.00658x elapsed=0:02:16.67    \nframe=   47 fps=0.3 q=40.0 size=     256KiB time=00:00:00.90 bitrate=2330.6kbits/s speed=0.00656x elapsed=0:02:17.23    \nframe=   47 fps=0.3 q=40.0 size=     256KiB time=00:00:00.90 bitrate=2330.6kbits/s speed=0.00653x elapsed=0:02:17.78    \nframe=   47 fps=0.3 q=40.0 size=     256KiB time=00:00:00.90 bitrate=2330.6kbits/s speed=0.00651x elapsed=0:02:18.32    \nframe=   48 fps=0.3 q=42.3 size=     256KiB time=00:00:00.92 bitrate=2279.9kbits/s speed=0.00663x elapsed=0:02:18.85    \nframe=   48 fps=0.3 q=42.3 size=     256KiB time=00:00:00.92 bitrate=2279.9kbits/s speed=0.0066x elapsed=0:02:19.37    \nframe=   48 fps=0.3 q=42.3 size=     256KiB time=00:00:00.92 bitrate=2279.9kbits/s speed=0.00657x elapsed=0:02:19.93    \nframe=   48 fps=0.3 q=42.3 size=     256KiB time=00:00:00.92 bitrate=2279.9kbits/s speed=0.00655x elapsed=0:02:20.53    \nframe=   48 fps=0.3 q=42.3 size=     256KiB time=00:00:00.92 bitrate=2279.9kbits/s speed=0.00652x elapsed=0:02:21.13    \nframe=   48 fps=0.3 q=42.3 size=     256KiB time=00:00:00.92 bitrate=2279.9kbits/s speed=0.00649x elapsed=0:02:21.71    \nframe=   48 fps=0.3 q=42.3 size=     256KiB time=00:00:00.92 bitrate=2279.9kbits/s speed=0.00647x elapsed=0:02:22.27    \nframe=   49 fps=0.3 q=42.1 size=     256KiB time=00:00:00.94 bitrate=2231.4kbits/s speed=0.00658x elapsed=0:02:22.80    \nframe=   49 fps=0.3 q=42.1 size=     256KiB time=00:00:00.94 bitrate=2231.4kbits/s speed=0.00656x elapsed=0:02:23.32    \nframe=   49 fps=0.3 q=42.1 size=     256KiB time=00:00:00.94 bitrate=2231.4kbits/s speed=0.00653x elapsed=0:02:23.85    \nframe=   49 fps=0.3 q=42.1 size=     256KiB time=00:00:00.94 bitrate=2231.4kbits/s speed=0.00651x elapsed=0:02:24.42    \nframe=   50 fps=0.3 q=38.0 size=     256KiB time=00:00:00.96 bitrate=2184.9kbits/s speed=0.00662x elapsed=0:02:24.98    \nframe=   50 fps=0.3 q=38.0 size=     256KiB time=00:00:00.96 bitrate=2184.9kbits/s speed=0.0066x elapsed=0:02:25.53    \nframe=   51 fps=0.3 q=40.0 size=     256KiB time=00:00:00.98 bitrate=2140.3kbits/s speed=0.00671x elapsed=0:02:26.07    \nframe=   51 fps=0.3 q=40.0 size=     256KiB time=00:00:00.98 bitrate=2140.3kbits/s speed=0.00668x elapsed=0:02:26.60    \nframe=   51 fps=0.3 q=40.0 size=     256KiB time=00:00:00.98 bitrate=2140.3kbits/s speed=0.00666x elapsed=0:02:27.14    \nframe=   51 fps=0.3 q=40.0 size=     256KiB time=00:00:00.98 bitrate=2140.3kbits/s speed=0.00664x elapsed=0:02:27.69    \nframe=   51 fps=0.3 q=40.0 size=     256KiB time=00:00:00.98 bitrate=2140.3kbits/s speed=0.00661x elapsed=0:02:28.28    \nframe=   52 fps=0.3 q=42.0 size=     256KiB time=00:00:01.00 bitrate=2097.5kbits/s speed=0.00672x elapsed=0:02:28.85    \nframe=   52 fps=0.3 q=42.0 size=     256KiB time=00:00:01.00 bitrate=2097.5kbits/s speed=0.00669x elapsed=0:02:29.40    \nframe=   52 fps=0.3 q=42.0 size=     256KiB time=00:00:01.00 bitrate=2097.5kbits/s speed=0.00667x elapsed=0:02:29.93    \nframe=   52 fps=0.3 q=42.0 size=     256KiB time=00:00:01.00 bitrate=2097.5kbits/s speed=0.00665x elapsed=0:02:30.48    \nframe=   52 fps=0.3 q=42.0 size=     256KiB time=00:00:01.00 bitrate=2097.5kbits/s speed=0.00662x elapsed=0:02:31.04    \nframe=   52 fps=0.3 q=42.0 size=     256KiB time=00:00:01.00 bitrate=2097.5kbits/s speed=0.0066x elapsed=0:02:31.62    \nframe=   52 fps=0.3 q=42.0 size=     256KiB time=00:00:01.00 bitrate=2097.5kbits/s speed=0.00657x elapsed=0:02:32.16    \nframe=   52 fps=0.3 q=42.0 size=     256KiB time=00:00:01.00 bitrate=2097.5kbits/s speed=0.00655x elapsed=0:02:32.67    \nframe=   52 fps=0.3 q=42.0 size=     256KiB time=00:00:01.00 bitrate=2097.5kbits/s speed=0.00653x elapsed=0:02:33.22    \nframe=   52 fps=0.3 q=42.0 size=     256KiB time=00:00:01.00 bitrate=2097.5kbits/s speed=0.0065x elapsed=0:02:33.74    \nframe=   53 fps=0.3 q=42.1 size=     256KiB time=00:00:01.02 bitrate=2056.4kbits/s speed=0.00661x elapsed=0:02:34.29    \nframe=   53 fps=0.3 q=42.1 size=     256KiB time=00:00:01.02 bitrate=2056.4kbits/s speed=0.00659x elapsed=0:02:34.80    \nframe=   54 fps=0.3 q=37.9 size=     256KiB time=00:00:01.04 bitrate=2016.8kbits/s speed=0.0067x elapsed=0:02:35.32    \nframe=   54 fps=0.3 q=37.9 size=     256KiB time=00:00:01.04 bitrate=2016.8kbits/s speed=0.00667x elapsed=0:02:35.88    \nframe=   55 fps=0.4 q=40.1 size=     512KiB time=00:00:01.06 bitrate=3957.2kbits/s speed=0.00678x elapsed=0:02:36.41    \nframe=   55 fps=0.4 q=40.1 size=     512KiB time=00:00:01.06 bitrate=3957.2kbits/s speed=0.00675x elapsed=0:02:36.94    \nframe=   55 fps=0.3 q=40.1 size=     512KiB time=00:00:01.06 bitrate=3957.2kbits/s speed=0.00673x elapsed=0:02:37.46    \nframe=   56 fps=0.4 q=42.2 size=     512KiB time=00:00:01.08 bitrate=3883.9kbits/s speed=0.00684x elapsed=0:02:37.98    \nframe=   56 fps=0.4 q=42.2 size=     512KiB time=00:00:01.08 bitrate=3883.9kbits/s speed=0.00681x elapsed=0:02:38.48    \nframe=   56 fps=0.4 q=42.2 size=     512KiB time=00:00:01.08 bitrate=3883.9kbits/s speed=0.00679x elapsed=0:02:39.00    \nframe=   57 fps=0.4 q=42.3 size=     512KiB time=00:00:01.10 bitrate=3813.3kbits/s speed=0.0069x elapsed=0:02:39.52    \nframe=   57 fps=0.4 q=42.3 size=     512KiB time=00:00:01.10 bitrate=3813.3kbits/s speed=0.00687x elapsed=0:02:40.06    \nframe=   58 fps=0.4 q=37.8 size=     512KiB time=00:00:01.12 bitrate=3745.2kbits/s speed=0.00698x elapsed=0:02:40.56    \nframe=   58 fps=0.4 q=37.8 size=     512KiB time=00:00:01.12 bitrate=3745.2kbits/s speed=0.00695x elapsed=0:02:41.08    \nframe=   59 fps=0.4 q=40.2 size=     512KiB time=00:00:01.14 bitrate=3679.5kbits/s speed=0.00705x elapsed=0:02:41.60    \nframe=   59 fps=0.4 q=40.2 size=     512KiB time=00:00:01.14 bitrate=3679.5kbits/s speed=0.00703x elapsed=0:02:42.11    \nframe=   59 fps=0.4 q=40.2 size=     512KiB time=00:00:01.14 bitrate=3679.5kbits/s speed=0.00701x elapsed=0:02:42.63    \nframe=   59 fps=0.4 q=40.2 size=     512KiB time=00:00:01.14 bitrate=3679.5kbits/s speed=0.00699x elapsed=0:02:43.16    \nframe=   59 fps=0.4 q=40.2 size=     512KiB time=00:00:01.14 bitrate=3679.5kbits/s speed=0.00696x elapsed=0:02:43.68    \nframe=   60 fps=0.4 q=42.3 size=     512KiB time=00:00:01.16 bitrate=3616.1kbits/s speed=0.00706x elapsed=0:02:44.21    \nframe=   60 fps=0.4 q=42.3 size=     512KiB time=00:00:01.16 bitrate=3616.1kbits/s speed=0.00704x elapsed=0:02:44.72    \nframe=   61 fps=0.4 q=42.2 size=     512KiB time=00:00:01.18 bitrate=3554.8kbits/s speed=0.00714x elapsed=0:02:45.24    \nframe=   61 fps=0.4 q=42.2 size=     512KiB time=00:00:01.18 bitrate=3554.8kbits/s speed=0.00712x elapsed=0:02:45.77    \nframe=   62 fps=0.4 q=37.9 size=     512KiB time=00:00:01.20 bitrate=3495.5kbits/s speed=0.00722x elapsed=0:02:46.29    \nframe=   62 fps=0.4 q=37.9 size=     512KiB time=00:00:01.20 bitrate=3495.5kbits/s speed=0.00719x elapsed=0:02:46.81    \nframe=   63 fps=0.4 q=40.1 size=     512KiB time=00:00:01.22 bitrate=3438.2kbits/s speed=0.00729x elapsed=0:02:47.34    \nframe=   63 fps=0.4 q=40.1 size=     512KiB time=00:00:01.22 bitrate=3438.2kbits/s speed=0.00727x elapsed=0:02:47.87    \nframe=   63 fps=0.4 q=40.1 size=     512KiB time=00:00:01.22 bitrate=3438.2kbits/s speed=0.00724x elapsed=0:02:48.39    \nframe=   63 fps=0.4 q=40.1 size=     512KiB time=00:00:01.22 bitrate=3438.2kbits/s speed=0.00722x elapsed=0:02:48.91    \nframe=   64 fps=0.4 q=42.2 size=     512KiB time=00:00:01.24 bitrate=3382.8kbits/s speed=0.00732x elapsed=0:02:49.43    \nframe=   64 fps=0.4 q=42.2 size=     512KiB time=00:00:01.24 bitrate=3382.8kbits/s speed=0.0073x elapsed=0:02:49.96    \nframe=   64 fps=0.4 q=42.2 size=     512KiB time=00:00:01.24 bitrate=3382.8kbits/s speed=0.00727x elapsed=0:02:50.47    \nframe=   64 fps=0.4 q=42.2 size=     512KiB time=00:00:01.24 bitrate=3382.8kbits/s speed=0.00725x elapsed=0:02:51.00    \nframe=   65 fps=0.4 q=42.4 size=     512KiB time=00:00:01.26 bitrate=3329.1kbits/s speed=0.00735x elapsed=0:02:51.52    \nframe=   66 fps=0.4 q=37.9 size=     512KiB time=00:00:01.28 bitrate=3277.1kbits/s speed=0.00744x elapsed=0:02:52.04    \nframe=   66 fps=0.4 q=37.9 size=     512KiB time=00:00:01.28 bitrate=3277.1kbits/s speed=0.00742x elapsed=0:02:52.56    \nframe=   67 fps=0.4 q=40.2 size=     512KiB time=00:00:01.30 bitrate=3226.7kbits/s speed=0.00751x elapsed=0:02:53.09    \nframe=   67 fps=0.4 q=40.2 size=     512KiB time=00:00:01.30 bitrate=3226.7kbits/s speed=0.00749x elapsed=0:02:53.59    \nframe=   67 fps=0.4 q=40.2 size=     512KiB time=00:00:01.30 bitrate=3226.7kbits/s speed=0.00747x elapsed=0:02:54.11    \nframe=   67 fps=0.4 q=40.2 size=     512KiB time=00:00:01.30 bitrate=3226.7kbits/s speed=0.00744x elapsed=0:02:54.63    \nframe=   67 fps=0.4 q=40.2 size=     512KiB time=00:00:01.30 bitrate=3226.7kbits/s speed=0.00742x elapsed=0:02:55.15    \nframe=   68 fps=0.4 q=42.5 size=     512KiB time=00:00:01.32 bitrate=3177.8kbits/s speed=0.00751x elapsed=0:02:55.68    \nframe=   68 fps=0.4 q=42.5 size=     512KiB time=00:00:01.32 bitrate=3177.8kbits/s speed=0.00749x elapsed=0:02:56.21    \nframe=   68 fps=0.4 q=42.5 size=     512KiB time=00:00:01.32 bitrate=3177.8kbits/s speed=0.00747x elapsed=0:02:56.75    \nframe=   68 fps=0.4 q=42.5 size=     512KiB time=00:00:01.32 bitrate=3177.8kbits/s speed=0.00744x elapsed=0:02:57.30    \nframe=   68 fps=0.4 q=42.5 size=     512KiB time=00:00:01.32 bitrate=3177.8kbits/s speed=0.00742x elapsed=0:02:57.85    \nframe=   69 fps=0.4 q=42.7 size=     512KiB time=00:00:01.34 bitrate=3130.3kbits/s speed=0.00751x elapsed=0:02:58.42    \nframe=   69 fps=0.4 q=42.7 size=     512KiB time=00:00:01.34 bitrate=3130.3kbits/s speed=0.00749x elapsed=0:02:58.95    \nframe=   69 fps=0.4 q=42.7 size=     512KiB time=00:00:01.34 bitrate=3130.3kbits/s speed=0.00747x elapsed=0:02:59.49    \nframe=   70 fps=0.4 q=38.1 size=     512KiB time=00:00:01.34 bitrate=3130.3kbits/s speed=0.00744x elapsed=0:03:00.02    \nframe=   70 fps=0.4 q=38.1 size=     512KiB time=00:00:01.36 bitrate=3084.3kbits/s speed=0.00753x elapsed=0:03:00.56    \nframe=   70 fps=0.4 q=38.1 size=     512KiB time=00:00:01.36 bitrate=3084.3kbits/s speed=0.00751x elapsed=0:03:01.08    \nframe=   71 fps=0.4 q=40.6 size=     512KiB time=00:00:01.38 bitrate=3039.6kbits/s speed=0.0076x elapsed=0:03:01.59    \nframe=   71 fps=0.4 q=40.6 size=     512KiB time=00:00:01.38 bitrate=3039.6kbits/s speed=0.00758x elapsed=0:03:02.11    \nframe=   71 fps=0.4 q=40.6 size=     512KiB time=00:00:01.38 bitrate=3039.6kbits/s speed=0.00756x elapsed=0:03:02.63    \nframe=   71 fps=0.4 q=40.6 size=     512KiB time=00:00:01.38 bitrate=3039.6kbits/s speed=0.00753x elapsed=0:03:03.14    \nframe=   72 fps=0.4 q=42.8 size=     512KiB time=00:00:01.40 bitrate=2996.2kbits/s speed=0.00762x elapsed=0:03:03.66    \nframe=   72 fps=0.4 q=42.8 size=     512KiB time=00:00:01.40 bitrate=2996.2kbits/s speed=0.0076x elapsed=0:03:04.17    \nframe=   73 fps=0.4 q=42.9 size=     512KiB time=00:00:01.42 bitrate=2954.0kbits/s speed=0.00769x elapsed=0:03:04.70    \nframe=   73 fps=0.4 q=42.9 size=     512KiB time=00:00:01.42 bitrate=2954.0kbits/s speed=0.00767x elapsed=0:03:05.22    \nframe=   74 fps=0.4 q=38.0 size=     512KiB time=00:00:01.44 bitrate=2913.0kbits/s speed=0.00775x elapsed=0:03:05.73    \nframe=   74 fps=0.4 q=38.0 size=     512KiB time=00:00:01.44 bitrate=2913.0kbits/s speed=0.00773x elapsed=0:03:06.25    \nframe=   75 fps=0.4 q=40.5 size=     512KiB time=00:00:01.46 bitrate=2873.1kbits/s speed=0.00782x elapsed=0:03:06.76    \nframe=   75 fps=0.4 q=40.5 size=     512KiB time=00:00:01.46 bitrate=2873.1kbits/s speed=0.0078x elapsed=0:03:07.28    \nframe=   75 fps=0.4 q=40.5 size=     512KiB time=00:00:01.46 bitrate=2873.1kbits/s speed=0.00777x elapsed=0:03:07.80    \nframe=   75 fps=0.4 q=40.5 size=     512KiB time=00:00:01.46 bitrate=2873.1kbits/s speed=0.00775x elapsed=0:03:08.33    \nframe=   76 fps=0.4 q=42.6 size=     512KiB time=00:00:01.48 bitrate=2834.2kbits/s speed=0.00784x elapsed=0:03:08.85    \nframe=   76 fps=0.4 q=42.6 size=     512KiB time=00:00:01.48 bitrate=2834.2kbits/s speed=0.00781x elapsed=0:03:09.38    \nframe=   77 fps=0.4 q=42.7 size=     512KiB time=00:00:01.50 bitrate=2796.4kbits/s speed=0.0079x elapsed=0:03:09.89    \nframe=   77 fps=0.4 q=42.7 size=     512KiB time=00:00:01.50 bitrate=2796.4kbits/s speed=0.00788x elapsed=0:03:10.43    \nframe=   77 fps=0.4 q=42.7 size=     512KiB time=00:00:01.50 bitrate=2796.4kbits/s speed=0.00786x elapsed=0:03:10.94    \nframe=   78 fps=0.4 q=37.9 size=     512KiB time=00:00:01.52 bitrate=2759.6kbits/s speed=0.00794x elapsed=0:03:11.46    \nframe=   78 fps=0.4 q=37.9 size=     512KiB time=00:00:01.52 bitrate=2759.6kbits/s speed=0.00792x elapsed=0:03:12.02    \nframe=   79 fps=0.4 q=40.4 size=     512KiB time=00:00:01.54 bitrate=2723.8kbits/s speed=0.008x elapsed=0:03:12.54    \nframe=   79 fps=0.4 q=40.4 size=     512KiB time=00:00:01.54 bitrate=2723.8kbits/s speed=0.00798x elapsed=0:03:13.08    \nframe=   79 fps=0.4 q=40.4 size=     512KiB time=00:00:01.54 bitrate=2723.8kbits/s speed=0.00795x elapsed=0:03:13.60    \nframe=   79 fps=0.4 q=40.4 size=     512KiB time=00:00:01.54 bitrate=2723.8kbits/s speed=0.00793x elapsed=0:03:14.12    \nframe=   80 fps=0.4 q=42.8 size=     768KiB time=00:00:01.56 bitrate=4033.2kbits/s speed=0.00802x elapsed=0:03:14.62    \nframe=   80 fps=0.4 q=42.8 size=     768KiB time=00:00:01.56 bitrate=4033.2kbits/s speed=0.00799x elapsed=0:03:15.15    \nframe=   81 fps=0.4 q=42.7 size=     768KiB time=00:00:01.58 bitrate=3982.2kbits/s speed=0.00807x elapsed=0:03:15.70    \nframe=   81 fps=0.4 q=42.7 size=     768KiB time=00:00:01.58 bitrate=3982.2kbits/s speed=0.00805x elapsed=0:03:16.23    \nframe=   81 fps=0.4 q=42.7 size=     768KiB time=00:00:01.58 bitrate=3982.2kbits/s speed=0.00803x elapsed=0:03:16.75    \nframe=   82 fps=0.4 q=37.7 size=     768KiB time=00:00:01.60 bitrate=3932.4kbits/s speed=0.00811x elapsed=0:03:17.28    \nframe=   82 fps=0.4 q=37.7 size=     768KiB time=00:00:01.60 bitrate=3932.4kbits/s speed=0.00809x elapsed=0:03:17.80    \nframe=   83 fps=0.4 q=40.3 size=     768KiB time=00:00:01.62 bitrate=3883.8kbits/s speed=0.00817x elapsed=0:03:18.32    \nframe=   83 fps=0.4 q=40.3 size=     768KiB time=00:00:01.62 bitrate=3883.8kbits/s speed=0.00815x elapsed=0:03:18.82    \nframe=   83 fps=0.4 q=40.3 size=     768KiB time=00:00:01.62 bitrate=3883.8kbits/s speed=0.00813x elapsed=0:03:19.35    \nframe=   84 fps=0.4 q=42.6 size=     768KiB time=00:00:01.64 bitrate=3836.5kbits/s speed=0.00821x elapsed=0:03:19.86    \nframe=   84 fps=0.4 q=42.6 size=     768KiB time=00:00:01.64 bitrate=3836.5kbits/s speed=0.00818x elapsed=0:03:20.39    \nframe=   84 fps=0.4 q=42.6 size=     768KiB time=00:00:01.64 bitrate=3836.5kbits/s speed=0.00816x elapsed=0:03:20.90    \nframe=   85 fps=0.4 q=42.6 size=     768KiB time=00:00:01.66 bitrate=3790.2kbits/s speed=0.00824x elapsed=0:03:21.43    \nframe=   86 fps=0.4 q=37.5 size=     768KiB time=00:00:01.68 bitrate=3745.1kbits/s speed=0.00832x elapsed=0:03:21.95    \nframe=   87 fps=0.4 q=40.0 size=     768KiB time=00:00:01.70 bitrate=3701.1kbits/s speed=0.0084x elapsed=0:03:22.45    \nframe=   87 fps=0.4 q=40.0 size=     768KiB time=00:00:01.70 bitrate=3701.1kbits/s speed=0.00838x elapsed=0:03:22.97    \nframe=   87 fps=0.4 q=40.0 size=     768KiB time=00:00:01.70 bitrate=3701.1kbits/s speed=0.00835x elapsed=0:03:23.48    \nframe=   87 fps=0.4 q=40.0 size=     768KiB time=00:00:01.70 bitrate=3701.1kbits/s speed=0.00833x elapsed=0:03:24.01    \nframe=   87 fps=0.4 q=40.0 size=     768KiB time=00:00:01.70 bitrate=3701.1kbits/s speed=0.00831x elapsed=0:03:24.51    \nframe=   88 fps=0.4 q=42.3 size=     768KiB time=00:00:01.72 bitrate=3658.0kbits/s speed=0.00839x elapsed=0:03:25.03    \nframe=   88 fps=0.4 q=42.3 size=     768KiB time=00:00:01.72 bitrate=3658.0kbits/s speed=0.00837x elapsed=0:03:25.55    \nframe=   89 fps=0.4 q=42.3 size=     768KiB time=00:00:01.74 bitrate=3616.0kbits/s speed=0.00844x elapsed=0:03:26.06    \nframe=   89 fps=0.4 q=42.3 size=     768KiB time=00:00:01.74 bitrate=3616.0kbits/s speed=0.00842x elapsed=0:03:26.58    \nframe=   90 fps=0.4 q=37.3 size=     768KiB time=00:00:01.76 bitrate=3574.9kbits/s speed=0.0085x elapsed=0:03:27.11    \nframe=   91 fps=0.4 q=40.0 size=     768KiB time=00:00:01.78 bitrate=3534.7kbits/s speed=0.00857x elapsed=0:03:27.62    \nframe=   91 fps=0.4 q=40.0 size=     768KiB time=00:00:01.78 bitrate=3534.7kbits/s speed=0.00855x elapsed=0:03:28.15    \nframe=   91 fps=0.4 q=40.0 size=     768KiB time=00:00:01.78 bitrate=3534.7kbits/s speed=0.00853x elapsed=0:03:28.66    \nframe=   91 fps=0.4 q=40.0 size=     768KiB time=00:00:01.78 bitrate=3534.7kbits/s speed=0.00851x elapsed=0:03:29.17    \nframe=   91 fps=0.4 q=40.0 size=     768KiB time=00:00:01.78 bitrate=3534.7kbits/s speed=0.00849x elapsed=0:03:29.69    \nframe=   92 fps=0.4 q=42.3 size=     768KiB time=00:00:01.80 bitrate=3495.4kbits/s speed=0.00856x elapsed=0:03:30.21    \nframe=   92 fps=0.4 q=42.3 size=     768KiB time=00:00:01.80 bitrate=3495.4kbits/s speed=0.00854x elapsed=0:03:30.73    \nframe=   92 fps=0.4 q=42.3 size=     768KiB time=00:00:01.80 bitrate=3495.4kbits/s speed=0.00852x elapsed=0:03:31.26    \nframe=   93 fps=0.4 q=42.2 size=     768KiB time=00:00:01.82 bitrate=3457.0kbits/s speed=0.00859x elapsed=0:03:31.78    \nframe=   93 fps=0.4 q=42.2 size=     768KiB time=00:00:01.82 bitrate=3457.0kbits/s speed=0.00857x elapsed=0:03:32.28    \nframe=   94 fps=0.4 q=36.9 size=     768KiB time=00:00:01.84 bitrate=3419.5kbits/s speed=0.00865x elapsed=0:03:32.80    \nframe=   94 fps=0.4 q=36.9 size=     768KiB time=00:00:01.84 bitrate=3419.5kbits/s speed=0.00863x elapsed=0:03:33.31    \nframe=   94 fps=0.4 q=36.9 size=     768KiB time=00:00:01.84 bitrate=3419.5kbits/s speed=0.0086x elapsed=0:03:33.83    \nframe=   95 fps=0.4 q=41.0 size=     768KiB time=00:00:01.86 bitrate=3382.7kbits/s speed=0.00868x elapsed=0:03:34.35    \nframe=   96 fps=0.4 q=42.2 size=     768KiB time=00:00:01.88 bitrate=3346.7kbits/s speed=0.00875x elapsed=0:03:34.88    \nframe=   96 fps=0.4 q=42.2 size=     768KiB time=00:00:01.88 bitrate=3346.7kbits/s speed=0.00873x elapsed=0:03:35.39    \nframe=   96 fps=0.4 q=42.2 size=     768KiB time=00:00:01.88 bitrate=3346.7kbits/s speed=0.00871x elapsed=0:03:35.91    \nframe=   96 fps=0.4 q=42.2 size=     768KiB time=00:00:01.88 bitrate=3346.7kbits/s speed=0.00869x elapsed=0:03:36.42    \nframe=   96 fps=0.4 q=42.2 size=     768KiB time=00:00:01.88 bitrate=3346.7kbits/s speed=0.00867x elapsed=0:03:36.94    \nframe=   97 fps=0.4 q=42.4 size=     768KiB time=00:00:01.90 bitrate=3311.5kbits/s speed=0.00874x elapsed=0:03:37.46    \nframe=   97 fps=0.4 q=42.4 size=     768KiB time=00:00:01.90 bitrate=3311.5kbits/s speed=0.00872x elapsed=0:03:37.97    \nframe=   97 fps=0.4 q=42.4 size=     768KiB time=00:00:01.90 bitrate=3311.5kbits/s speed=0.0087x elapsed=0:03:38.50    \nframe=   97 fps=0.4 q=42.4 size=     768KiB time=00:00:01.90 bitrate=3311.5kbits/s speed=0.00867x elapsed=0:03:39.03    \nframe=   98 fps=0.4 q=42.5 size=     768KiB time=00:00:01.92 bitrate=3277.0kbits/s speed=0.00874x elapsed=0:03:39.55    \nframe=   99 fps=0.4 q=36.6 size=     768KiB time=00:00:01.94 bitrate=3243.2kbits/s speed=0.00881x elapsed=0:03:40.08    \nframe=  100 fps=0.5 q=37.8 size=     768KiB time=00:00:01.96 bitrate=3210.1kbits/s speed=0.00888x elapsed=0:03:40.59    \nframe=  100 fps=0.5 q=37.8 size=     768KiB time=00:00:01.96 bitrate=3210.1kbits/s speed=0.00886x elapsed=0:03:41.12    \nframe=  101 fps=0.5 q=42.7 size=     768KiB time=00:00:01.98 bitrate=3177.7kbits/s speed=0.00893x elapsed=0:03:41.64    \nframe=  101 fps=0.5 q=42.7 size=     768KiB time=00:00:01.98 bitrate=3177.7kbits/s speed=0.00891x elapsed=0:03:42.19    \nframe=  102 fps=0.5 q=42.7 size=     768KiB time=00:00:02.00 bitrate=3145.9kbits/s speed=0.00898x elapsed=0:03:42.70    \nframe=  102 fps=0.5 q=42.7 size=     768KiB time=00:00:02.00 bitrate=3145.9kbits/s speed=0.00896x elapsed=0:03:43.24    \nframe=  102 fps=0.5 q=42.7 size=     768KiB time=00:00:02.00 bitrate=3145.9kbits/s speed=0.00894x elapsed=0:03:43.77    \nframe=  102 fps=0.5 q=42.7 size=     768KiB time=00:00:02.00 bitrate=3145.9kbits/s speed=0.00892x elapsed=0:03:44.32    \nframe=  103 fps=0.5 q=43.1 size=     768KiB time=00:00:02.02 bitrate=3114.8kbits/s speed=0.00898x elapsed=0:03:44.84    \nframe=  103 fps=0.5 q=43.1 size=     768KiB time=00:00:02.02 bitrate=3114.8kbits/s speed=0.00896x elapsed=0:03:45.45    \nframe=  103 fps=0.5 q=43.1 size=     768KiB time=00:00:02.02 bitrate=3114.8kbits/s speed=0.00894x elapsed=0:03:46.03    \nframe=  104 fps=0.5 q=36.7 size=     768KiB time=00:00:02.04 bitrate=3084.2kbits/s speed=0.009x elapsed=0:03:46.57    \nframe=  104 fps=0.5 q=36.7 size=     768KiB time=00:00:02.04 bitrate=3084.2kbits/s speed=0.00898x elapsed=0:03:47.12    \nframe=  104 fps=0.5 q=36.7 size=     768KiB time=00:00:02.04 bitrate=3084.2kbits/s speed=0.00896x elapsed=0:03:47.64    \nframe=  105 fps=0.5 q=39.9 size=    1024KiB time=00:00:02.06 bitrate=4072.3kbits/s speed=0.00903x elapsed=0:03:48.16    \nframe=  105 fps=0.5 q=39.9 size=    1024KiB time=00:00:02.06 bitrate=4072.3kbits/s speed=0.00901x elapsed=0:03:48.69    \nframe=  107 fps=0.5 q=43.2 size=    1024KiB time=00:00:02.10 bitrate=3994.7kbits/s speed=0.00916x elapsed=0:03:49.21    \nframe=  107 fps=0.5 q=43.2 size=    1024KiB time=00:00:02.10 bitrate=3994.7kbits/s speed=0.00914x elapsed=0:03:49.74    \nframe=  108 fps=0.5 q=43.4 size=    1024KiB time=00:00:02.12 bitrate=3957.1kbits/s speed=0.00921x elapsed=0:03:50.25    \nframe=  109 fps=0.5 q=36.6 size=    1024KiB time=00:00:02.14 bitrate=3920.1kbits/s speed=0.00927x elapsed=0:03:50.76    \nframe=  109 fps=0.5 q=36.6 size=    1024KiB time=00:00:02.14 bitrate=3920.1kbits/s speed=0.00925x elapsed=0:03:51.31    \nframe=  110 fps=0.5 q=40.6 size=    1024KiB time=00:00:02.16 bitrate=3883.8kbits/s speed=0.00932x elapsed=0:03:51.83    \nframe=  110 fps=0.5 q=40.6 size=    1024KiB time=00:00:02.16 bitrate=3883.8kbits/s speed=0.0093x elapsed=0:03:52.35    \nframe=  111 fps=0.5 q=43.4 size=    1024KiB time=00:00:02.18 bitrate=3848.1kbits/s speed=0.00936x elapsed=0:03:52.86    \nframe=  112 fps=0.5 q=43.4 size=    1024KiB time=00:00:02.20 bitrate=3813.2kbits/s speed=0.00943x elapsed=0:03:53.38    \nframe=  112 fps=0.5 q=43.4 size=    1024KiB time=00:00:02.20 bitrate=3813.2kbits/s speed=0.00941x elapsed=0:03:53.90    \nframe=  113 fps=0.5 q=36.7 size=    1024KiB time=00:00:02.22 bitrate=3778.8kbits/s speed=0.00947x elapsed=0:03:54.42    \nframe=  113 fps=0.5 q=36.7 size=    1024KiB time=00:00:02.22 bitrate=3778.8kbits/s speed=0.00945x elapsed=0:03:54.94    \nframe=  114 fps=0.5 q=40.5 size=    1024KiB time=00:00:02.24 bitrate=3745.1kbits/s speed=0.00951x elapsed=0:03:55.47    \nframe=  115 fps=0.5 q=43.4 size=    1024KiB time=00:00:02.26 bitrate=3711.9kbits/s speed=0.00958x elapsed=0:03:56.02    \nframe=  115 fps=0.5 q=43.4 size=    1024KiB time=00:00:02.26 bitrate=3711.9kbits/s speed=0.00955x elapsed=0:03:56.53    \nframe=  116 fps=0.5 q=43.5 size=    1024KiB time=00:00:02.28 bitrate=3679.4kbits/s speed=0.00962x elapsed=0:03:57.07    \nframe=  116 fps=0.5 q=43.5 size=    1024KiB time=00:00:02.28 bitrate=3679.4kbits/s speed=0.0096x elapsed=0:03:57.59    \nframe=  117 fps=0.5 q=36.6 size=    1024KiB time=00:00:02.30 bitrate=3647.4kbits/s speed=0.00966x elapsed=0:03:58.11    \nframe=  118 fps=0.5 q=40.7 size=    1024KiB time=00:00:02.32 bitrate=3615.9kbits/s speed=0.00972x elapsed=0:03:58.63    \nframe=  118 fps=0.5 q=40.7 size=    1024KiB time=00:00:02.32 bitrate=3615.9kbits/s speed=0.0097x elapsed=0:03:59.14    \nframe=  120 fps=0.5 q=43.7 size=    1024KiB time=00:00:02.36 bitrate=3554.6kbits/s speed=0.00985x elapsed=0:03:59.66    \nframe=  120 fps=0.5 q=43.7 size=    1024KiB time=00:00:02.36 bitrate=3554.6kbits/s speed=0.00983x elapsed=0:04:00.18    \nframe=  121 fps=0.5 q=36.6 size=    1024KiB time=00:00:02.38 bitrate=3524.8kbits/s speed=0.00989x elapsed=0:04:00.69    \nframe=  122 fps=0.5 q=40.8 size=    1024KiB time=00:00:02.40 bitrate=3495.4kbits/s speed=0.00995x elapsed=0:04:01.21    \nframe=  123 fps=0.5 q=43.5 size=    1024KiB time=00:00:02.42 bitrate=3466.5kbits/s speed=0.01x elapsed=0:04:01.73    \nframe=  123 fps=0.5 q=43.5 size=    1024KiB time=00:00:02.42 bitrate=3466.5kbits/s speed=0.00999x elapsed=0:04:02.23    \nframe=  123 fps=0.5 q=43.5 size=    1024KiB time=00:00:02.42 bitrate=3466.5kbits/s speed=0.00997x elapsed=0:04:02.75    \nframe=  124 fps=0.5 q=43.5 size=    1024KiB time=00:00:02.44 bitrate=3438.1kbits/s speed=0.01x elapsed=0:04:03.28    \nframe=  125 fps=0.5 q=36.5 size=    1024KiB time=00:00:02.46 bitrate=3410.1kbits/s speed=0.0101x elapsed=0:04:03.78    \nframe=  126 fps=0.5 q=40.9 size=    1024KiB time=00:00:02.48 bitrate=3382.6kbits/s speed=0.0102x elapsed=0:04:04.31    \nframe=  126 fps=0.5 q=40.9 size=    1024KiB time=00:00:02.48 bitrate=3382.6kbits/s speed=0.0101x elapsed=0:04:04.83    \nframe=  127 fps=0.5 q=43.5 size=    1024KiB time=00:00:02.50 bitrate=3355.6kbits/s speed=0.0102x elapsed=0:04:05.35    \nframe=  128 fps=0.5 q=43.5 size=    1024KiB time=00:00:02.52 bitrate=3329.0kbits/s speed=0.0102x elapsed=0:04:05.87    \nframe=  129 fps=0.5 q=36.6 size=    1024KiB time=00:00:02.54 bitrate=3302.7kbits/s speed=0.0103x elapsed=0:04:06.38    \nframe=  130 fps=0.5 q=42.0 size=    1280KiB time=00:00:02.56 bitrate=4096.1kbits/s speed=0.0104x elapsed=0:04:06.91    \nframe=  130 fps=0.5 q=42.0 size=    1280KiB time=00:00:02.56 bitrate=4096.1kbits/s speed=0.0103x elapsed=0:04:07.43    \nframe=  131 fps=0.5 q=43.2 size=    1280KiB time=00:00:02.58 bitrate=4064.4kbits/s speed=0.0104x elapsed=0:04:07.95    \nframe=  132 fps=0.5 q=43.4 size=    1280KiB time=00:00:02.60 bitrate=4033.1kbits/s speed=0.0105x elapsed=0:04:08.48    \nframe=  132 fps=0.5 q=43.4 size=    1280KiB time=00:00:02.60 bitrate=4033.1kbits/s speed=0.0104x elapsed=0:04:08.99    \nframe=  133 fps=0.5 q=43.4 size=    1280KiB time=00:00:02.62 bitrate=4002.3kbits/s speed=0.0105x elapsed=0:04:09.52    \nframe=  133 fps=0.5 q=43.4 size=    1280KiB time=00:00:02.62 bitrate=4002.3kbits/s speed=0.0105x elapsed=0:04:10.04    \nframe=  134 fps=0.5 q=36.6 size=    1280KiB time=00:00:02.64 bitrate=3972.0kbits/s speed=0.0105x elapsed=0:04:10.57    \nframe=  135 fps=0.5 q=40.9 size=    1280KiB time=00:00:02.66 bitrate=3942.1kbits/s speed=0.0106x elapsed=0:04:11.09    \nframe=  135 fps=0.5 q=40.9 size=    1280KiB time=00:00:02.66 bitrate=3942.1kbits/s speed=0.0106x elapsed=0:04:11.63    \nframe=  135 fps=0.5 q=40.9 size=    1280KiB time=00:00:02.66 bitrate=3942.1kbits/s speed=0.0105x elapsed=0:04:12.14    \nframe=  135 fps=0.5 q=40.9 size=    1280KiB time=00:00:02.66 bitrate=3942.1kbits/s speed=0.0105x elapsed=0:04:12.67    \nframe=  136 fps=0.5 q=43.7 size=    1280KiB time=00:00:02.68 bitrate=3912.7kbits/s speed=0.0106x elapsed=0:04:13.19    \nframe=  137 fps=0.5 q=43.5 size=    1280KiB time=00:00:02.70 bitrate=3883.7kbits/s speed=0.0106x elapsed=0:04:13.70    \nframe=  137 fps=0.5 q=43.5 size=    1280KiB time=00:00:02.70 bitrate=3883.7kbits/s speed=0.0106x elapsed=0:04:14.23    \nframe=  138 fps=0.5 q=36.6 size=    1280KiB time=00:00:02.72 bitrate=3855.2kbits/s speed=0.0107x elapsed=0:04:14.75    \nframe=  138 fps=0.5 q=36.6 size=    1280KiB time=00:00:02.72 bitrate=3855.2kbits/s speed=0.0107x elapsed=0:04:15.27    \nframe=  139 fps=0.5 q=40.4 size=    1280KiB time=00:00:02.74 bitrate=3827.0kbits/s speed=0.0107x elapsed=0:04:15.80    \nframe=  139 fps=0.5 q=40.4 size=    1280KiB time=00:00:02.74 bitrate=3827.0kbits/s speed=0.0107x elapsed=0:04:16.36    \nframe=  140 fps=0.5 q=43.3 size=    1280KiB time=00:00:02.76 bitrate=3799.3kbits/s speed=0.0107x elapsed=0:04:16.90    \nframe=  141 fps=0.5 q=43.4 size=    1280KiB time=00:00:02.78 bitrate=3772.0kbits/s speed=0.0108x elapsed=0:04:17.43    \nframe=  143 fps=0.6 q=41.8 size=    1280KiB time=00:00:02.82 bitrate=3718.5kbits/s speed=0.0109x elapsed=0:04:17.95    \nframe=  143 fps=0.6 q=41.8 size=    1280KiB time=00:00:02.82 bitrate=3718.5kbits/s speed=0.0109x elapsed=0:04:18.47    \nframe=  144 fps=0.6 q=43.1 size=    1280KiB time=00:00:02.84 bitrate=3692.3kbits/s speed=0.011x elapsed=0:04:18.99    \nframe=  144 fps=0.6 q=43.1 size=    1280KiB time=00:00:02.84 bitrate=3692.3kbits/s speed=0.0109x elapsed=0:04:19.55    \nframe=  144 fps=0.6 q=43.1 size=    1280KiB time=00:00:02.84 bitrate=3692.3kbits/s speed=0.0109x elapsed=0:04:20.09    \nframe=  145 fps=0.6 q=43.1 size=    1280KiB time=00:00:02.86 bitrate=3666.5kbits/s speed=0.011x elapsed=0:04:20.62    \nframe=  145 fps=0.6 q=43.1 size=    1280KiB time=00:00:02.86 bitrate=3666.5kbits/s speed=0.011x elapsed=0:04:21.14    \nframe=  146 fps=0.6 q=43.1 size=    1280KiB time=00:00:02.88 bitrate=3641.0kbits/s speed=0.011x elapsed=0:04:21.66    \nframe=  146 fps=0.6 q=43.1 size=    1280KiB time=00:00:02.88 bitrate=3641.0kbits/s speed=0.011x elapsed=0:04:22.18    \nframe=  146 fps=0.6 q=43.1 size=    1280KiB time=00:00:02.88 bitrate=3641.0kbits/s speed=0.011x elapsed=0:04:22.70    \nframe=  148 fps=0.6 q=37.7 size=    1280KiB time=00:00:02.92 bitrate=3591.1kbits/s speed=0.0111x elapsed=0:04:23.22    \nframe=  148 fps=0.6 q=37.7 size=    1280KiB time=00:00:02.92 bitrate=3591.1kbits/s speed=0.0111x elapsed=0:04:23.74    \nframe=  148 fps=0.6 q=37.7 size=    1280KiB time=00:00:02.92 bitrate=3591.1kbits/s speed=0.011x elapsed=0:04:24.26    \nframe=  148 fps=0.6 q=37.7 size=    1280KiB time=00:00:02.92 bitrate=3591.1kbits/s speed=0.011x elapsed=0:04:24.81    \nframe=  149 fps=0.6 q=43.1 size=    1280KiB time=00:00:02.94 bitrate=3566.7kbits/s speed=0.0111x elapsed=0:04:25.36    \nframe=  150 fps=0.6 q=43.1 size=    1280KiB time=00:00:02.96 bitrate=3542.6kbits/s speed=0.0111x elapsed=0:04:25.88    \nframe=  150 fps=0.6 q=43.1 size=    1280KiB time=00:00:02.96 bitrate=3542.6kbits/s speed=0.0111x elapsed=0:04:26.41    \nframe=  150 fps=0.6 q=43.1 size=    1280KiB time=00:00:02.96 bitrate=3542.6kbits/s speed=0.0111x elapsed=0:04:26.94    \nframe=  150 fps=0.6 q=43.1 size=    1280KiB time=00:00:02.96 bitrate=3542.6kbits/s speed=0.0111x elapsed=0:04:27.46    \nframe=  151 fps=0.6 q=43.4 size=    1280KiB time=00:00:02.98 bitrate=3518.8kbits/s speed=0.0111x elapsed=0:04:28.00    \nframe=  151 fps=0.6 q=43.4 size=    1280KiB time=00:00:02.98 bitrate=3518.8kbits/s speed=0.0111x elapsed=0:04:28.51    \nframe=  152 fps=0.6 q=36.7 size=    1280KiB time=00:00:03.00 bitrate=3495.4kbits/s speed=0.0112x elapsed=0:04:29.04    \nframe=  152 fps=0.6 q=36.7 size=    1280KiB time=00:00:03.00 bitrate=3495.4kbits/s speed=0.0111x elapsed=0:04:29.58    \nframe=  154 fps=0.6 q=43.3 size=    1280KiB time=00:00:03.02 bitrate=3472.2kbits/s speed=0.0112x elapsed=0:04:30.10    \nframe=  154 fps=0.6 q=43.3 size=    1280KiB time=00:00:03.04 bitrate=3449.4kbits/s speed=0.0112x elapsed=0:04:30.62    \nframe=  154 fps=0.6 q=43.3 size=    1280KiB time=00:00:03.04 bitrate=3449.4kbits/s speed=0.0112x elapsed=0:04:31.13    \nframe=  155 fps=0.6 q=43.4 size=    1280KiB time=00:00:03.06 bitrate=3426.8kbits/s speed=0.0113x elapsed=0:04:31.66    \nframe=  156 fps=0.6 q=43.2 size=    1280KiB time=00:00:03.08 bitrate=3404.6kbits/s speed=0.0113x elapsed=0:04:32.18    \nframe=  156 fps=0.6 q=43.2 size=    1280KiB time=00:00:03.08 bitrate=3404.6kbits/s speed=0.0113x elapsed=0:04:32.69    \nframe=  157 fps=0.6 q=36.6 size=    1280KiB time=00:00:03.10 bitrate=3382.6kbits/s speed=0.0113x elapsed=0:04:33.21    \nframe=  157 fps=0.6 q=36.6 size=    1280KiB time=00:00:03.10 bitrate=3382.6kbits/s speed=0.0113x elapsed=0:04:33.77    \nframe=  157 fps=0.6 q=36.6 size=    1280KiB time=00:00:03.10 bitrate=3382.6kbits/s speed=0.0113x elapsed=0:04:34.35    \nframe=  158 fps=0.6 q=40.7 size=    1536KiB time=00:00:03.12 bitrate=4033.1kbits/s speed=0.0113x elapsed=0:04:34.94    \nframe=  158 fps=0.6 q=40.7 size=    1536KiB time=00:00:03.12 bitrate=4033.1kbits/s speed=0.0113x elapsed=0:04:35.47    \nframe=  158 fps=0.6 q=40.7 size=    1536KiB time=00:00:03.12 bitrate=4033.1kbits/s speed=0.0113x elapsed=0:04:36.02    \nframe=  159 fps=0.6 q=43.2 size=    1536KiB time=00:00:03.14 bitrate=4007.4kbits/s speed=0.0114x elapsed=0:04:36.56    \nframe=  159 fps=0.6 q=43.2 size=    1536KiB time=00:00:03.14 bitrate=4007.4kbits/s speed=0.0113x elapsed=0:04:37.09    \nframe=  161 fps=0.6 q=36.6 size=    1536KiB time=00:00:03.18 bitrate=3957.0kbits/s speed=0.0115x elapsed=0:04:37.61    \nframe=  162 fps=0.6 q=40.8 size=    1536KiB time=00:00:03.20 bitrate=3932.3kbits/s speed=0.0115x elapsed=0:04:38.13    \nframe=  163 fps=0.6 q=43.3 size=    1536KiB time=00:00:03.22 bitrate=3907.8kbits/s speed=0.0116x elapsed=0:04:38.65    \nframe=  163 fps=0.6 q=43.3 size=    1536KiB time=00:00:03.22 bitrate=3907.8kbits/s speed=0.0115x elapsed=0:04:39.20    \nframe=  164 fps=0.6 q=43.3 size=    1536KiB time=00:00:03.24 bitrate=3883.7kbits/s speed=0.0116x elapsed=0:04:39.72    \nframe=  165 fps=0.6 q=36.7 size=    1536KiB time=00:00:03.26 bitrate=3859.9kbits/s speed=0.0116x elapsed=0:04:40.23    \nframe=  165 fps=0.6 q=36.7 size=    1536KiB time=00:00:03.26 bitrate=3859.9kbits/s speed=0.0116x elapsed=0:04:40.75    \nframe=  166 fps=0.6 q=40.8 size=    1536KiB time=00:00:03.28 bitrate=3836.4kbits/s speed=0.0117x elapsed=0:04:41.28    \nframe=  167 fps=0.6 q=43.4 size=    1536KiB time=00:00:03.30 bitrate=3813.1kbits/s speed=0.0117x elapsed=0:04:41.81    \nframe=  168 fps=0.6 q=43.2 size=    1536KiB time=00:00:03.32 bitrate=3790.1kbits/s speed=0.0118x elapsed=0:04:42.31    \nframe=  168 fps=0.6 q=43.2 size=    1536KiB time=00:00:03.32 bitrate=3790.1kbits/s speed=0.0117x elapsed=0:04:42.84    \nframe=  169 fps=0.6 q=36.7 size=    1536KiB time=00:00:03.34 bitrate=3767.4kbits/s speed=0.0118x elapsed=0:04:43.38    \nframe=  170 fps=0.6 q=40.8 size=    1536KiB time=00:00:03.36 bitrate=3745.0kbits/s speed=0.0118x elapsed=0:04:43.89    \nframe=  170 fps=0.6 q=40.8 size=    1536KiB time=00:00:03.36 bitrate=3745.0kbits/s speed=0.0118x elapsed=0:04:44.41    \nframe=  171 fps=0.6 q=43.0 size=    1536KiB time=00:00:03.38 bitrate=3722.9kbits/s speed=0.0119x elapsed=0:04:44.93    \nframe=  172 fps=0.6 q=43.5 size=    1536KiB time=00:00:03.40 bitrate=3701.0kbits/s speed=0.0119x elapsed=0:04:45.46    \nframe=  172 fps=0.6 q=43.5 size=    1536KiB time=00:00:03.40 bitrate=3701.0kbits/s speed=0.0119x elapsed=0:04:45.97    \nframe=  173 fps=0.6 q=36.7 size=    1536KiB time=00:00:03.42 bitrate=3679.3kbits/s speed=0.0119x elapsed=0:04:46.49    \nframe=  173 fps=0.6 q=36.7 size=    1536KiB time=00:00:03.42 bitrate=3679.3kbits/s speed=0.0119x elapsed=0:04:47.01    \nframe=  174 fps=0.6 q=40.9 size=    1536KiB time=00:00:03.44 bitrate=3657.9kbits/s speed=0.012x elapsed=0:04:47.51    \nframe=  175 fps=0.6 q=43.5 size=    1536KiB time=00:00:03.46 bitrate=3636.8kbits/s speed=0.012x elapsed=0:04:48.03    \nframe=  175 fps=0.6 q=43.5 size=    1536KiB time=00:00:03.46 bitrate=3636.8kbits/s speed=0.012x elapsed=0:04:48.55    \nframe=  177 fps=0.6 q=36.7 size=    1536KiB time=00:00:03.50 bitrate=3595.2kbits/s speed=0.0121x elapsed=0:04:49.06    \nframe=  177 fps=0.6 q=36.7 size=    1536KiB time=00:00:03.50 bitrate=3595.2kbits/s speed=0.0121x elapsed=0:04:49.58    \nframe=  178 fps=0.6 q=41.0 size=    1536KiB time=00:00:03.52 bitrate=3574.8kbits/s speed=0.0121x elapsed=0:04:50.10    \nframe=  178 fps=0.6 q=41.0 size=    1536KiB time=00:00:03.52 bitrate=3574.8kbits/s speed=0.0121x elapsed=0:04:50.63    \nframe=  179 fps=0.6 q=43.5 size=    1536KiB time=00:00:03.54 bitrate=3554.6kbits/s speed=0.0122x elapsed=0:04:51.16    \nframe=  179 fps=0.6 q=43.5 size=    1536KiB time=00:00:03.54 bitrate=3554.6kbits/s speed=0.0121x elapsed=0:04:51.71    \nframe=  180 fps=0.6 q=43.5 size=    1536KiB time=00:00:03.56 bitrate=3534.6kbits/s speed=0.0122x elapsed=0:04:52.23    \nframe=  181 fps=0.6 q=36.7 size=    1536KiB time=00:00:03.58 bitrate=3514.9kbits/s speed=0.0122x elapsed=0:04:52.74    \nframe=  181 fps=0.6 q=36.7 size=    1536KiB time=00:00:03.58 bitrate=3514.9kbits/s speed=0.0122x elapsed=0:04:53.27    \nframe=  181 fps=0.6 q=36.7 size=    1536KiB time=00:00:03.58 bitrate=3514.9kbits/s speed=0.0122x elapsed=0:04:53.80    \nframe=  182 fps=0.6 q=41.0 size=    1792KiB time=00:00:03.60 bitrate=4077.9kbits/s speed=0.0122x elapsed=0:04:54.32    \nframe=  183 fps=0.6 q=43.3 size=    1792KiB time=00:00:03.62 bitrate=4055.4kbits/s speed=0.0123x elapsed=0:04:54.85    \nframe=  184 fps=0.6 q=43.6 size=    1792KiB time=00:00:03.64 bitrate=4033.1kbits/s speed=0.0123x elapsed=0:04:55.43    \nframe=  184 fps=0.6 q=43.6 size=    1792KiB time=00:00:03.64 bitrate=4033.1kbits/s speed=0.0123x elapsed=0:04:55.94    \nframe=  184 fps=0.6 q=43.6 size=    1792KiB time=00:00:03.64 bitrate=4033.1kbits/s speed=0.0123x elapsed=0:04:56.48    \nframe=  184 fps=0.6 q=43.6 size=    1792KiB time=00:00:03.64 bitrate=4033.1kbits/s speed=0.0123x elapsed=0:04:57.00    \nframe=  186 fps=0.6 q=41.1 size=    1792KiB time=00:00:03.68 bitrate=3989.2kbits/s speed=0.0124x elapsed=0:04:57.52    \nframe=  186 fps=0.6 q=41.1 size=    1792KiB time=00:00:03.68 bitrate=3989.2kbits/s speed=0.0123x elapsed=0:04:58.04    \nframe=  187 fps=0.6 q=43.3 size=    1792KiB time=00:00:03.70 bitrate=3967.7kbits/s speed=0.0124x elapsed=0:04:58.56    \nframe=  188 fps=0.6 q=43.6 size=    1792KiB time=00:00:03.72 bitrate=3946.3kbits/s speed=0.0124x elapsed=0:04:59.10    \nframe=  188 fps=0.6 q=43.6 size=    1792KiB time=00:00:03.72 bitrate=3946.3kbits/s speed=0.0124x elapsed=0:04:59.64    \nframe=  188 fps=0.6 q=43.6 size=    1792KiB time=00:00:03.72 bitrate=3946.3kbits/s speed=0.0124x elapsed=0:05:00.16    \nframe=  188 fps=0.6 q=43.6 size=    1792KiB time=00:00:03.72 bitrate=3946.3kbits/s speed=0.0124x elapsed=0:05:00.71    \nframe=  188 fps=0.6 q=43.6 size=    1792KiB time=00:00:03.72 bitrate=3946.3kbits/s speed=0.0123x elapsed=0:05:01.24    \nframe=  189 fps=0.6 q=36.7 size=    1792KiB time=00:00:03.74 bitrate=3925.2kbits/s speed=0.0124x elapsed=0:05:01.77    \nframe=  189 fps=0.6 q=36.7 size=    1792KiB time=00:00:03.74 bitrate=3925.2kbits/s speed=0.0124x elapsed=0:05:02.32    \nframe=  189 fps=0.6 q=36.7 size=    1792KiB time=00:00:03.74 bitrate=3925.2kbits/s speed=0.0123x elapsed=0:05:02.88    \nframe=  190 fps=0.6 q=41.1 size=    1792KiB time=00:00:03.76 bitrate=3904.4kbits/s speed=0.0124x elapsed=0:05:03.42    \nframe=  190 fps=0.6 q=41.1 size=    1792KiB time=00:00:03.76 bitrate=3904.4kbits/s speed=0.0124x elapsed=0:05:03.94    \nframe=  191 fps=0.6 q=43.6 size=    1792KiB time=00:00:03.78 bitrate=3883.7kbits/s speed=0.0124x elapsed=0:05:04.47    \nframe=  192 fps=0.6 q=43.6 size=    1792KiB time=00:00:03.80 bitrate=3863.3kbits/s speed=0.0125x elapsed=0:05:05.00    \nframe=  192 fps=0.6 q=43.6 size=    1792KiB time=00:00:03.80 bitrate=3863.3kbits/s speed=0.0124x elapsed=0:05:05.55    \nframe=  192 fps=0.6 q=43.6 size=    1792KiB time=00:00:03.80 bitrate=3863.3kbits/s speed=0.0124x elapsed=0:05:06.08    \nframe=  194 fps=0.6 q=41.3 size=    1792KiB time=00:00:03.84 bitrate=3823.0kbits/s speed=0.0125x elapsed=0:05:06.62    \nframe=  194 fps=0.6 q=41.3 size=    1792KiB time=00:00:03.84 bitrate=3823.0kbits/s speed=0.0125x elapsed=0:05:07.15    \nframe=  194 fps=0.6 q=41.3 size=    1792KiB time=00:00:03.84 bitrate=3823.0kbits/s speed=0.0125x elapsed=0:05:07.67    \nframe=  194 fps=0.6 q=41.3 size=    1792KiB time=00:00:03.84 bitrate=3823.0kbits/s speed=0.0125x elapsed=0:05:08.19    \nframe=  195 fps=0.6 q=43.6 size=    1792KiB time=00:00:03.86 bitrate=3803.2kbits/s speed=0.0125x elapsed=0:05:08.72    \nframe=  196 fps=0.6 q=43.5 size=    1792KiB time=00:00:03.88 bitrate=3783.6kbits/s speed=0.0125x elapsed=0:05:09.24    \nframe=  196 fps=0.6 q=43.5 size=    1792KiB time=00:00:03.88 bitrate=3783.6kbits/s speed=0.0125x elapsed=0:05:09.76    \nframe=  197 fps=0.6 q=36.6 size=    1792KiB time=00:00:03.90 bitrate=3764.2kbits/s speed=0.0126x elapsed=0:05:10.27    \nframe=  198 fps=0.6 q=41.2 size=    1792KiB time=00:00:03.92 bitrate=3745.0kbits/s speed=0.0126x elapsed=0:05:10.81    \nframe=  198 fps=0.6 q=41.2 size=    1792KiB time=00:00:03.92 bitrate=3745.0kbits/s speed=0.0126x elapsed=0:05:11.35    \nframe=  199 fps=0.6 q=43.5 size=    1792KiB time=00:00:03.94 bitrate=3726.0kbits/s speed=0.0126x elapsed=0:05:11.87    \nframe=  199 fps=0.6 q=43.5 size=    1792KiB time=00:00:03.94 bitrate=3726.0kbits/s speed=0.0126x elapsed=0:05:12.41    \nframe=  200 fps=0.6 q=43.6 size=    1792KiB time=00:00:03.96 bitrate=3707.2kbits/s speed=0.0127x elapsed=0:05:12.93    \nframe=  200 fps=0.6 q=43.6 size=    1792KiB time=00:00:03.96 bitrate=3707.2kbits/s speed=0.0126x elapsed=0:05:13.46    \nframe=  201 fps=0.6 q=36.6 size=    1792KiB time=00:00:03.98 bitrate=3688.5kbits/s speed=0.0127x elapsed=0:05:13.99    \nframe=  201 fps=0.6 q=36.6 size=    1792KiB time=00:00:03.98 bitrate=3688.5kbits/s speed=0.0127x elapsed=0:05:14.56    \nframe=  201 fps=0.6 q=36.6 size=    1792KiB time=00:00:03.98 bitrate=3688.5kbits/s speed=0.0126x elapsed=0:05:15.10    \nframe=  203 fps=0.6 q=43.7 size=    1792KiB time=00:00:04.02 bitrate=3651.8kbits/s speed=0.0127x elapsed=0:05:15.65    \nframe=  203 fps=0.6 q=43.7 size=    1792KiB time=00:00:04.02 bitrate=3651.8kbits/s speed=0.0127x elapsed=0:05:16.20    \nframe=  203 fps=0.6 q=43.7 size=    1792KiB time=00:00:04.02 bitrate=3651.8kbits/s speed=0.0127x elapsed=0:05:16.82    \nframe=  203 fps=0.6 q=43.7 size=    1792KiB time=00:00:04.02 bitrate=3651.8kbits/s speed=0.0127x elapsed=0:05:17.37    \nframe=  203 fps=0.6 q=43.7 size=    1792KiB time=00:00:04.02 bitrate=3651.8kbits/s speed=0.0126x elapsed=0:05:17.91    \nframe=  204 fps=0.6 q=43.7 size=    1792KiB time=00:00:04.04 bitrate=3633.8kbits/s speed=0.0127x elapsed=0:05:18.45    \nframe=  204 fps=0.6 q=43.7 size=    1792KiB time=00:00:04.04 bitrate=3633.8kbits/s speed=0.0127x elapsed=0:05:19.04    \nframe=  204 fps=0.6 q=43.7 size=    1792KiB time=00:00:04.04 bitrate=3633.8kbits/s speed=0.0126x elapsed=0:05:19.58    \nframe=  205 fps=0.6 q=36.8 size=    1792KiB time=00:00:04.06 bitrate=3615.9kbits/s speed=0.0127x elapsed=0:05:20.12    \nframe=  205 fps=0.6 q=36.8 size=    1792KiB time=00:00:04.06 bitrate=3615.9kbits/s speed=0.0127x elapsed=0:05:20.64    \nframe=  206 fps=0.6 q=41.3 size=    2048KiB time=00:00:04.08 bitrate=4112.1kbits/s speed=0.0127x elapsed=0:05:21.17    \nframe=  206 fps=0.6 q=41.3 size=    2048KiB time=00:00:04.08 bitrate=4112.1kbits/s speed=0.0127x elapsed=0:05:21.69    \nframe=  208 fps=0.6 q=43.8 size=    2048KiB time=00:00:04.12 bitrate=4072.2kbits/s speed=0.0128x elapsed=0:05:22.20    \nframe=  209 fps=0.6 q=36.8 size=    2048KiB time=00:00:04.14 bitrate=4052.6kbits/s speed=0.0128x elapsed=0:05:22.73    \nframe=  210 fps=0.6 q=41.4 size=    2048KiB time=00:00:04.16 bitrate=4033.1kbits/s speed=0.0129x elapsed=0:05:23.25    \nframe=  210 fps=0.6 q=41.4 size=    2048KiB time=00:00:04.16 bitrate=4033.1kbits/s speed=0.0128x elapsed=0:05:23.79    \nframe=  211 fps=0.7 q=43.6 size=    2048KiB time=00:00:04.18 bitrate=4013.8kbits/s speed=0.0129x elapsed=0:05:24.31    \nframe=  212 fps=0.7 q=43.7 size=    2048KiB time=00:00:04.20 bitrate=3994.7kbits/s speed=0.0129x elapsed=0:05:24.81    \nframe=  213 fps=0.7 q=36.7 size=    2048KiB time=00:00:04.22 bitrate=3975.7kbits/s speed=0.013x elapsed=0:05:25.33    \nframe=  214 fps=0.7 q=41.2 size=    2048KiB time=00:00:04.24 bitrate=3957.0kbits/s speed=0.013x elapsed=0:05:25.84    \nframe=  214 fps=0.7 q=41.2 size=    2048KiB time=00:00:04.24 bitrate=3957.0kbits/s speed=0.013x elapsed=0:05:26.36    \nframe=  215 fps=0.7 q=43.5 size=    2048KiB time=00:00:04.26 bitrate=3938.4kbits/s speed=0.013x elapsed=0:05:26.88    \nframe=  216 fps=0.7 q=43.7 size=    2048KiB time=00:00:04.28 bitrate=3920.0kbits/s speed=0.0131x elapsed=0:05:27.39    \nframe=  218 fps=0.7 q=41.2 size=    2048KiB time=00:00:04.32 bitrate=3883.7kbits/s speed=0.0132x elapsed=0:05:27.91    \nframe=  218 fps=0.7 q=41.2 size=    2048KiB time=00:00:04.32 bitrate=3883.7kbits/s speed=0.0132x elapsed=0:05:28.43    \nframe=  219 fps=0.7 q=43.4 size=    2048KiB time=00:00:04.34 bitrate=3865.8kbits/s speed=0.0132x elapsed=0:05:28.95    \nframe=  219 fps=0.7 q=43.4 size=    2048KiB time=00:00:04.34 bitrate=3865.8kbits/s speed=0.0132x elapsed=0:05:29.48    \nframe=  220 fps=0.7 q=43.4 size=    2048KiB time=00:00:04.36 bitrate=3848.1kbits/s speed=0.0132x elapsed=0:05:29.99    \nframe=  222 fps=0.7 q=41.2 size=    2048KiB time=00:00:04.40 bitrate=3813.1kbits/s speed=0.0133x elapsed=0:05:30.50    \nframe=  223 fps=0.7 q=43.5 size=    2048KiB time=00:00:04.42 bitrate=3795.8kbits/s speed=0.0134x elapsed=0:05:31.02    \nframe=  223 fps=0.7 q=43.5 size=    2048KiB time=00:00:04.42 bitrate=3795.8kbits/s speed=0.0133x elapsed=0:05:31.54    \nframe=  224 fps=0.7 q=43.6 size=    2048KiB time=00:00:04.44 bitrate=3778.7kbits/s speed=0.0134x elapsed=0:05:32.06    \nframe=  224 fps=0.7 q=43.6 size=    2048KiB time=00:00:04.44 bitrate=3778.7kbits/s speed=0.0133x elapsed=0:05:32.58    \nframe=  225 fps=0.7 q=36.8 size=    2048KiB time=00:00:04.46 bitrate=3761.8kbits/s speed=0.0134x elapsed=0:05:33.09    \nframe=  226 fps=0.7 q=41.2 size=    2048KiB time=00:00:04.48 bitrate=3745.0kbits/s speed=0.0134x elapsed=0:05:33.61    \nframe=  226 fps=0.7 q=41.2 size=    2048KiB time=00:00:04.48 bitrate=3745.0kbits/s speed=0.0134x elapsed=0:05:34.13    \nframe=  227 fps=0.7 q=43.6 size=    2048KiB time=00:00:04.50 bitrate=3728.3kbits/s speed=0.0134x elapsed=0:05:34.64    \nframe=  228 fps=0.7 q=43.7 size=    2048KiB time=00:00:04.52 bitrate=3711.9kbits/s speed=0.0135x elapsed=0:05:35.17    \nframe=  229 fps=0.7 q=36.9 size=    2048KiB time=00:00:04.54 bitrate=3695.5kbits/s speed=0.0135x elapsed=0:05:35.69    \nframe=  230 fps=0.7 q=41.3 size=    2048KiB time=00:00:04.56 bitrate=3679.3kbits/s speed=0.0136x elapsed=0:05:36.22    \nframe=  232 fps=0.7 q=43.4 size=    2048KiB time=00:00:04.60 bitrate=3647.3kbits/s speed=0.0137x elapsed=0:05:36.76    \nframe=  232 fps=0.7 q=43.4 size=    2048KiB time=00:00:04.60 bitrate=3647.3kbits/s speed=0.0136x elapsed=0:05:37.26    \nframe=  232 fps=0.7 q=43.4 size=    2048KiB time=00:00:04.60 bitrate=3647.3kbits/s speed=0.0136x elapsed=0:05:37.79    \nframe=  234 fps=0.7 q=41.3 size=    2304KiB time=00:00:04.64 bitrate=4067.8kbits/s speed=0.0137x elapsed=0:05:38.30    \nframe=  235 fps=0.7 q=43.6 size=    2304KiB time=00:00:04.64 bitrate=4067.8kbits/s speed=0.0137x elapsed=0:05:38.82    \nframe=  235 fps=0.7 q=43.6 size=    2304KiB time=00:00:04.66 bitrate=4050.4kbits/s speed=0.0137x elapsed=0:05:39.33    \nframe=  236 fps=0.7 q=43.7 size=    2304KiB time=00:00:04.68 bitrate=4033.1kbits/s speed=0.0138x elapsed=0:05:39.85    \nframe=  237 fps=0.7 q=37.2 size=    2304KiB time=00:00:04.70 bitrate=4015.9kbits/s speed=0.0138x elapsed=0:05:40.36    \nframe=  238 fps=0.7 q=41.2 size=    2304KiB time=00:00:04.72 bitrate=3998.9kbits/s speed=0.0138x elapsed=0:05:40.88    \nframe=  238 fps=0.7 q=41.2 size=    2304KiB time=00:00:04.72 bitrate=3998.9kbits/s speed=0.0138x elapsed=0:05:41.40    \nframe=  239 fps=0.7 q=43.6 size=    2304KiB time=00:00:04.74 bitrate=3982.0kbits/s speed=0.0139x elapsed=0:05:41.92    \nframe=  239 fps=0.7 q=43.6 size=    2304KiB time=00:00:04.74 bitrate=3982.0kbits/s speed=0.0138x elapsed=0:05:42.44    \nframe=  240 fps=0.7 q=43.8 size=    2304KiB time=00:00:04.76 bitrate=3965.3kbits/s speed=0.0139x elapsed=0:05:42.98    \nframe=  241 fps=0.7 q=37.9 size=    2304KiB time=00:00:04.78 bitrate=3948.7kbits/s speed=0.0139x elapsed=0:05:43.50    \nframe=  241 fps=0.7 q=37.9 size=    2304KiB time=00:00:04.78 bitrate=3948.7kbits/s speed=0.0139x elapsed=0:05:44.08    \nframe=  241 fps=0.7 q=37.9 size=    2304KiB time=00:00:04.78 bitrate=3948.7kbits/s speed=0.0139x elapsed=0:05:44.60    \nframe=  242 fps=0.7 q=42.2 size=    2304KiB time=00:00:04.80 bitrate=3932.2kbits/s speed=0.0139x elapsed=0:05:45.15    \nframe=  243 fps=0.7 q=43.5 size=    2304KiB time=00:00:04.82 bitrate=3915.9kbits/s speed=0.0139x elapsed=0:05:45.69    \nframe=  243 fps=0.7 q=43.5 size=    2304KiB time=00:00:04.82 bitrate=3915.9kbits/s speed=0.0139x elapsed=0:05:46.21    \nframe=  244 fps=0.7 q=43.6 size=    2304KiB time=00:00:04.84 bitrate=3899.7kbits/s speed=0.014x elapsed=0:05:46.76    \nframe=  245 fps=0.7 q=43.6 size=    2304KiB time=00:00:04.86 bitrate=3883.7kbits/s speed=0.014x elapsed=0:05:47.27    \nframe=  245 fps=0.7 q=43.6 size=    2304KiB time=00:00:04.86 bitrate=3883.7kbits/s speed=0.014x elapsed=0:05:47.78    \nframe=  247 fps=0.7 q=42.2 size=    2304KiB time=00:00:04.90 bitrate=3852.0kbits/s speed=0.0141x elapsed=0:05:48.30    \nframe=  247 fps=0.7 q=42.2 size=    2304KiB time=00:00:04.90 bitrate=3852.0kbits/s speed=0.014x elapsed=0:05:48.82    \nframe=  247 fps=0.7 q=42.2 size=    2304KiB time=00:00:04.90 bitrate=3852.0kbits/s speed=0.014x elapsed=0:05:49.36    \nframe=  248 fps=0.7 q=43.3 size=    2304KiB time=00:00:04.92 bitrate=3836.3kbits/s speed=0.0141x elapsed=0:05:49.89    \n[mp4 @ 000001703695aa40] Starting second pass: moving the moov atom to the beginning of the file\n[out#0/mp4 @ 00000170369e7d80] video:2439KiB audio:0KiB subtitle:0KiB other streams:0KiB global headers:2KiB muxing overhead: 0.263504%\nframe=  250 fps=0.7 q=43.5 Lsize=    2445KiB time=00:00:04.96 bitrate=4038.2kbits/s speed=0.0142x elapsed=0:05:49.98    \nx265 [info]: frame I:      1, Avg QP:38.00  kb/s: 17610.80\nx265 [info]: frame P:     60, Avg QP:37.37  kb/s: 11309.91\nx265 [info]: frame B:    189, Avg QP:42.37  kb/s: 1599.15 \nx265 [info]: Weighted P-Frames: Y:0.0% UV:0.0%\n\nencoded 250 frames in 349.19s (0.72 fps), 3993.78 kb/s, Avg QP:41.16\n",
  "seconds": 350.7150902748108,
  "probe_out": {}
}